<svg width="250" height="336" viewBox="0 0 250 336" fill="none" xmlns="http://www.w3.org/2000/svg">
<path fill-rule="evenodd" clip-rule="evenodd" d="M86.7348 141.407C88.4413 161.328 198.378 219.98 199.02 221.625C199.305 222.357 187.898 245.476 164.8 290.985L174.41 294.179C209.839 245.982 226.643 219.316 224.823 214.181C222.218 206.828 193.785 182.641 139.524 141.619L86.7348 141.407Z" fill="#B28B67"/>
<path fill-rule="evenodd" clip-rule="evenodd" d="M167.33 280.708L183.02 285.593C216.105 253.665 229.073 227.32 226.709 213.898C225.132 204.949 196.798 180.802 141.704 141.456L85.6106 141.456C87.5244 187.592 189.422 221.802 190.785 223.768C192.148 225.734 178.735 244.989 167.33 280.708Z" fill="#2F3676"/>
<path fill-rule="evenodd" clip-rule="evenodd" d="M161.71 289.677C159.661 291.793 158.372 293.449 157.842 294.646C157.197 296.101 156.521 298.304 155.812 301.253C157.647 301.802 174.142 306.737 205.297 316.058C208.314 312.533 208.506 310.2 205.874 309.059C203.241 307.918 201.065 306.948 199.343 306.149L180.519 289.836C180.157 289.522 179.557 289.55 179.18 289.898C179.173 289.904 179.167 289.91 179.161 289.916L176.221 292.773C173.169 293.106 170.841 293.033 169.238 292.553C167.935 292.163 166.35 291.141 164.483 289.486C163.767 288.851 162.567 288.895 161.805 289.585C161.772 289.614 161.74 289.645 161.71 289.677Z" fill="#E4E4E4"/>
<path fill-rule="evenodd" clip-rule="evenodd" d="M99.3733 141.404L50.3993 241.966L2.26562 326.983H13.6219L137.868 141.404H99.3733Z" fill="#997659"/>
<path fill-rule="evenodd" clip-rule="evenodd" d="M1.58823 323.14C0.529411 325.567 0 327.383 0 328.587C0 330.053 0.284321 332.191 0.852963 335.003C2.83283 335.003 20.6263 335.003 54.2333 335.003C55.6205 331.065 54.8197 328.939 51.831 328.625C48.8424 328.311 46.3596 328.028 44.3828 327.775L19.5722 318.278C19.0947 318.095 18.5352 318.279 18.3224 318.689C18.3187 318.696 18.3152 318.703 18.3118 318.71L16.717 322.032C13.9503 323.14 11.702 323.695 9.97223 323.695C8.56682 323.695 6.62595 323.207 4.1496 322.232C3.19929 321.858 2.07576 322.217 1.64012 323.033C1.62135 323.068 1.60404 323.103 1.58823 323.14Z" fill="#E4E4E4"/>
<path fill-rule="evenodd" clip-rule="evenodd" d="M6.61328 309.322L31.8471 313.369C51.3578 288.835 133.011 188.235 141.964 141.404H85.7873C55.8904 175.259 25.211 284.381 6.61328 309.322Z" fill="#5C63AB"/>
<path fill-rule="evenodd" clip-rule="evenodd" d="M117.668 43.9034C115.094 38.8169 114.12 33.0019 116.493 27.1508C123.331 10.2923 147.81 18.9877 150.011 28.5813C152.213 38.1749 144.524 59.9622 137.563 60.2655C134.788 60.3864 129.787 57.8255 125.212 53.6333L121.272 77.293L100.568 73.3195L117.668 43.9034Z" fill="#B28B67"/>
<path fill-rule="evenodd" clip-rule="evenodd" d="M150.491 33.0231C150.632 31.8489 150.502 30.4882 150.416 29.3337C150.304 27.8454 149.87 26.4374 149.332 25.0846C148.317 22.5378 146.895 20.1375 145.153 18.034C141.972 14.1918 137.262 11.4055 131.916 10.9467C129.217 10.715 126.403 11.1061 123.781 12.1657C121.411 13.1231 118.917 14.7295 116.35 14.3713C113.557 13.9814 111.722 11.3078 109.942 9.52813C107.935 7.52175 105.64 5.89478 102.874 4.89058C98.2392 3.20853 93.2119 3.77686 88.7409 6.69145C83.9831 9.79302 79.6416 14.8642 80.4003 20.3746C80.5413 21.3989 80.8531 22.3007 81.4509 23.1154C81.9992 23.8625 82.9238 24.7251 82.9215 25.7447C82.9187 26.8284 81.5582 27.9573 80.902 28.8055C79.9619 30.0208 79.0954 31.3203 78.7995 32.7851C78.3135 35.1908 79.2578 37.7666 80.514 39.6603C81.7922 41.5873 83.6901 42.9233 85.8892 43.8018C87.3576 44.3884 88.8992 44.8571 90.5129 45.0663C91.3139 45.1701 92.0678 45.1118 92.877 45.107C93.6639 45.1023 94.0219 45.3605 94.5352 45.8489C96.9195 48.1182 99.848 49.394 103.292 49.81C106.199 50.1609 109.666 50.1923 112.53 48.9051C115.712 47.4755 116.499 44.7902 116.789 41.812C117.341 42.2246 119.061 42.7532 118.357 41.4055C118.078 40.8717 117.342 40.5309 116.886 40.159C116.355 39.7261 115.842 39.201 115.513 38.6011C114.182 36.1788 117.466 32.4378 120.153 32.2469C124.145 31.9634 123.505 36.7916 125.751 38.5186C127.041 39.5116 128.917 38.8762 130.35 38.132C132.271 37.1351 133.841 35.6212 135.28 34.0491C136.465 32.7544 137.606 31.4294 138.803 30.1448C139.362 29.5448 141.164 27.8929 140.794 27.0158C143.574 27.0667 146.198 28.63 148.061 30.3671C148.831 31.0853 149.361 31.8138 149.567 32.8526C149.611 33.0752 149.656 33.7199 149.941 33.8025C150.472 33.9563 150.455 33.3182 150.491 33.0231Z" fill="#191847"/>
<path fill-rule="evenodd" clip-rule="evenodd" d="M177.063 134.077L206.768 153.512C214.901 155.516 221.677 157.966 227.098 160.863C228.37 161.895 229.888 163.973 224.521 163.547C219.155 163.122 213.487 162.882 212.708 164.449C211.93 166.016 215.138 167.944 213.589 170.052C212.557 171.457 207.918 167.839 199.674 159.198L170.066 148.161L177.063 134.077ZM61.2859 133.226L81.0366 133.55C68.0482 167.254 61.0438 185.136 60.0233 187.195C57.727 191.829 62.1892 198.989 64.0792 202.83C57.5748 205.227 58.4766 196.048 50.2687 199.196C42.7768 202.07 37.0048 207.378 28.5358 202.715C27.4946 202.142 26.3885 200.02 29.2185 198.41C36.269 194.399 46.4588 187.351 47.8682 185.006C49.7902 181.808 54.2628 164.548 61.2859 133.226Z" fill="#B28B67"/>
<path fill-rule="evenodd" clip-rule="evenodd" d="M118.995 63.2345L127.186 62.1393C156.942 84.981 168.369 128.268 204.954 151.596L195.796 160.983C131.561 153.304 116.833 100.494 118.995 63.2345Z" fill="#E87613"/>
<path fill-rule="evenodd" clip-rule="evenodd" d="M81.2789 150.709C113.962 151.135 138.003 151.447 153.402 151.648C156.697 151.691 156.172 147.594 155.744 145.525C150.804 121.643 129.941 95.6983 130.735 61.8055L109.997 58.7322C92.2331 82.2842 85.5969 111.48 81.2789 150.709Z" fill="#DDE3E9"/>
<path fill-rule="evenodd" clip-rule="evenodd" d="M83.4221 81.6933C80.4206 80.908 78.0706 79.1371 76.3721 76.3805C69.0503 64.4976 71.9461 58.0454 80.1154 56.0185C88.2848 53.9915 95.4228 58.4786 108.359 58.647C109.063 58.6562 109.706 58.7025 110.29 58.7859L116.79 59.1898C134.187 113.823 138.486 150.178 129.689 168.256L72.9683 167.517C69.45 174.209 66.1014 179.835 62.9227 184.393L47.4675 184.192C46.9593 143.747 58.9442 109.581 83.4221 81.6933Z" fill="#FF9B21"/>
<path fill-rule="evenodd" clip-rule="evenodd" d="M86.0454 139.682C87.5297 152.537 90.2124 161.888 94.0937 167.734L73.0332 167.46C77.1394 159.652 81.4768 150.393 86.0454 139.682Z" fill="black" fill-opacity="0.1"/>
</svg>
