<svg width="1440" height="1024" viewBox="0 0 1440 1024" fill="none" xmlns="http://www.w3.org/2000/svg">
<g opacity="0.7">
<rect width="1440" height="1024" fill="#FEB706"/>
<g opacity="0.3" clip-path="url(#clip0_562_7156)">
<path fill-rule="evenodd" clip-rule="evenodd" d="M816.834 159.767C815.496 155.043 812.352 151.345 809.089 147.957C802.736 141.362 799.319 137.284 797.055 127.636C795.724 121.962 794.369 115.949 790.145 111.832C787.07 108.834 781.778 106.316 777.666 108.462C771.339 112.457 769.64 120.654 770.278 127.994C771.069 137.092 775.086 142.701 782.804 146.052C787.153 147.94 790.043 150.43 792.404 154.769C794.292 158.238 795.393 162.583 797.766 165.729C801.313 170.431 805.753 172.521 811.225 171.74C806.099 161.765 800.111 151.696 792.889 143.297C792.213 142.453 788.225 139.221 789.029 137.782C789.915 136.198 794.009 142.15 793.98 142.114C796.079 144.662 798.021 147.371 799.928 150.105C799.924 150.108 799.918 150.109 799.913 150.112C801.876 152.918 803.824 155.765 805.735 158.648C806.508 159.867 807.26 161.102 807.98 162.368C809.037 164.226 810.714 169.498 812.443 170.64C812.813 170.885 813.155 171.021 813.475 171.078C814.655 173.121 815.803 175.181 816.895 177.265C819.746 182.708 822.193 188.456 823.316 194.601C823.644 196.395 823.412 203.105 824.57 204.4C826.686 206.768 826.066 202.207 825.939 200.83C824.888 189.43 821.019 179.718 815.402 170.134C817.127 167.75 817.377 161.681 816.834 159.767Z" fill="white"/>
<path fill-rule="evenodd" clip-rule="evenodd" d="M744.353 165.276C746.584 162.495 751.947 162.023 755.227 162.209C759.286 162.44 763.455 163.485 767.316 164.749C773.677 166.83 779.858 170.629 785.46 174.306C786.136 174.749 794.453 180.04 793.717 180.968C792.987 181.888 784.822 175.603 783.003 174.52C779.119 172.208 775.558 169.473 771.278 167.946C766.846 166.365 762.158 165.739 757.498 165.782C756.9 165.788 754.949 165.346 754.907 166.282C754.865 167.198 758.094 166.72 758.663 166.726C761.014 166.749 763.38 166.983 765.698 167.414C770.041 168.221 774.123 169.848 777.843 172.343C776.805 174.896 774.317 176.073 771.707 175.434C769.452 174.882 767.253 173.52 765.044 173.126C763.523 172.855 762 173.016 760.524 173.469C756.634 174.666 754.389 177.116 750.111 175.412C746.758 174.075 741.149 169.275 744.353 165.276Z" fill="white"/>
<path fill-rule="evenodd" clip-rule="evenodd" d="M746.876 138.962H747.932C747.858 137.545 747.761 136.131 747.535 134.73C746.687 129.478 744.034 121.765 738.215 120.912C738.001 120.88 737.211 120.875 736.255 120.934C735.801 120.669 735.294 120.508 734.759 120.472C729.805 120.089 724.273 124.272 721.883 128.624C719.957 132.133 720.281 136.741 721.471 140.469C722.268 142.965 724.007 146.523 726.907 146.558C730.535 146.601 730.71 141.909 730.78 139.165C730.873 135.518 731.313 132.341 734.059 129.856C734.7 129.276 735.399 128.767 736.046 128.196C737.058 127.302 738.177 126.387 738.307 124.908C738.487 122.868 737.387 122.501 735.706 122.88C735.42 122.944 732.535 124.299 732.962 123.228C733.092 122.901 733.569 122.642 734.17 122.448C735.726 122.27 737.581 122.065 738.115 122.188C743.871 123.509 746.113 131.854 746.708 137.156C746.775 137.756 746.829 138.359 746.876 138.962Z" fill="white"/>
</g>
<g opacity="0.3" clip-path="url(#clip1_562_7156)">
<path fill-rule="evenodd" clip-rule="evenodd" d="M1341.22 867.202C1339.27 860.339 1334.7 854.967 1329.96 850.045C1320.72 840.463 1315.75 834.538 1312.46 820.521C1310.53 812.278 1308.56 803.542 1302.42 797.561C1297.95 793.205 1290.25 789.546 1284.28 792.665C1275.08 798.468 1272.61 810.378 1273.54 821.042C1274.69 834.259 1280.53 842.409 1291.75 847.277C1298.07 850.019 1302.27 853.637 1305.7 859.941C1308.45 864.981 1310.05 871.294 1313.5 875.863C1318.65 882.694 1325.11 885.731 1333.06 884.596C1325.61 870.104 1316.9 855.476 1306.41 843.275C1305.42 842.048 1299.63 837.353 1300.79 835.262C1302.08 832.96 1308.03 841.607 1307.99 841.555C1311.04 845.258 1313.87 849.192 1316.64 853.165C1316.63 853.169 1316.62 853.171 1316.62 853.175C1319.47 857.251 1322.3 861.388 1325.08 865.576C1326.2 867.348 1327.3 869.142 1328.34 870.981C1329.88 873.68 1332.32 881.34 1334.83 882.999C1335.37 883.354 1335.87 883.553 1336.33 883.634C1338.05 886.603 1339.72 889.596 1341.3 892.624C1345.45 900.532 1349.01 908.882 1350.64 917.81C1351.11 920.416 1350.78 930.164 1352.46 932.046C1355.54 935.487 1354.63 928.86 1354.45 926.86C1352.92 910.298 1347.3 896.187 1339.13 882.263C1341.64 878.799 1342 869.983 1341.22 867.202Z" fill="white"/>
<path fill-rule="evenodd" clip-rule="evenodd" d="M1235.85 875.206C1239.09 871.167 1246.89 870.481 1251.66 870.752C1257.56 871.086 1263.62 872.605 1269.23 874.441C1278.48 877.465 1287.46 882.984 1295.61 888.325C1296.59 888.969 1308.68 896.656 1307.61 898.005C1306.55 899.342 1294.68 890.211 1292.03 888.637C1286.39 885.278 1281.21 881.305 1274.99 879.086C1268.55 876.789 1261.73 875.879 1254.96 875.942C1254.09 875.95 1251.25 875.309 1251.19 876.669C1251.13 877.999 1255.82 877.305 1256.65 877.313C1260.07 877.346 1263.51 877.687 1266.88 878.313C1273.19 879.486 1279.13 881.849 1284.53 885.474C1283.02 889.183 1279.41 890.893 1275.61 889.965C1272.33 889.162 1269.14 887.184 1265.93 886.612C1263.72 886.218 1261.5 886.452 1259.36 887.111C1253.7 888.849 1250.44 892.409 1244.22 889.932C1239.34 887.991 1231.19 881.016 1235.85 875.206Z" fill="white"/>
<path fill-rule="evenodd" clip-rule="evenodd" d="M1239.52 836.975H1241.05C1240.94 834.917 1240.8 832.861 1240.47 830.826C1239.24 823.196 1235.38 811.99 1226.93 810.752C1226.61 810.706 1225.47 810.698 1224.08 810.783C1223.42 810.398 1222.68 810.165 1221.9 810.112C1214.7 809.556 1206.66 815.632 1203.18 821.955C1200.38 827.053 1200.86 833.748 1202.59 839.164C1203.74 842.79 1206.27 847.96 1210.49 848.01C1215.76 848.073 1216.01 841.256 1216.12 837.271C1216.25 831.972 1216.89 827.356 1220.88 823.745C1221.82 822.903 1222.83 822.163 1223.77 821.334C1225.24 820.035 1226.87 818.705 1227.06 816.557C1227.32 813.593 1225.72 813.059 1223.28 813.61C1222.86 813.704 1218.67 815.672 1219.29 814.116C1219.48 813.641 1220.17 813.264 1221.05 812.982C1223.31 812.725 1226 812.427 1226.78 812.605C1235.15 814.525 1238.41 826.649 1239.27 834.351C1239.37 835.223 1239.45 836.099 1239.52 836.975Z" fill="white"/>
</g>
<g opacity="0.3">
<path fill-rule="evenodd" clip-rule="evenodd" d="M1034.38 185.377C1034.38 207.748 1036.02 225.883 1058.1 225.883C1080.17 225.883 1081.82 207.748 1081.82 185.377" fill="#DFE0DF"/>
<path fill-rule="evenodd" clip-rule="evenodd" d="M1064.66 171.42C1063.85 172.922 1063.13 174.453 1062.5 176.008C1062.47 172.806 1062.64 169.581 1063.09 166.311C1063.86 160.71 1065.03 155.139 1066.14 149.576C1066.93 145.578 1066.88 138.398 1069.9 135.212C1070.72 134.524 1070.92 135.874 1070.92 136.461C1070.93 136.585 1070.92 134.068 1070.12 134.506C1065.35 137.15 1063.8 145.462 1062.28 149.624C1060.05 155.699 1058.16 161.909 1057.37 168.229C1057.18 169.825 1057.07 171.422 1057.05 173.015C1056.88 172.589 1056.73 172.159 1056.56 171.735C1053.81 164.806 1050.1 158.045 1045.46 151.81C1044.32 150.276 1029.99 135.138 1028.86 137.455C1028.97 137.791 1029.21 138.07 1029.56 138.292C1029.58 138.318 1029.58 138.304 1029.57 138.266C1030.41 139.726 1032.8 141.981 1033.55 143.26C1035.43 146.48 1036.89 149.896 1038.37 153.248C1041.5 160.33 1044.41 167.484 1047.22 174.652C1047.88 176.322 1048.56 177.983 1049.26 179.638C1042.07 168.509 1032.48 158.406 1019.28 152.622C1023.79 155.084 1026.74 159.716 1029.79 163.263C1033.46 167.54 1037.33 171.703 1041.01 175.976C1045.35 181.017 1050.45 186.325 1054.63 191.904C1058.67 201.015 1062.6 210.136 1065.03 219.713C1064.03 216.404 1064.95 211.831 1064.78 208.358C1064.64 205.594 1064.34 202.852 1063.93 200.116C1064.44 201.35 1064.88 202.585 1065.08 203.734C1064.9 201.807 1064.69 199.893 1064.46 197.988C1065.04 196.204 1065.61 194.54 1065.99 193.169C1067.95 186.137 1070.29 179.226 1073.47 172.49C1076.42 166.259 1079.79 160.108 1083.48 154.144C1085.19 151.363 1086.93 148.593 1088.66 145.818C1089.79 144.001 1090.87 141.092 1092.45 139.352C1082.26 149.351 1071.13 159.422 1064.66 171.42Z" fill="#DFE0DF"/>
</g>
<g opacity="0.3">
<path fill-rule="evenodd" clip-rule="evenodd" d="M903.023 912.543C903.023 942.02 905.194 965.916 934.322 965.916C963.45 965.916 965.62 942.02 965.62 912.543" fill="#DFE0DF"/>
<path fill-rule="evenodd" clip-rule="evenodd" d="M942.986 894.152C941.918 896.13 940.966 898.149 940.125 900.198C940.096 895.978 940.313 891.728 940.908 887.42C941.924 880.04 943.475 872.699 944.933 865.369C945.981 860.102 945.915 850.641 949.892 846.443C950.983 845.536 951.245 847.316 951.245 848.088C951.259 848.251 951.242 844.935 950.184 845.513C943.892 848.996 941.853 859.949 939.838 865.433C936.899 873.437 934.399 881.62 933.369 889.947C933.109 892.051 932.967 894.154 932.935 896.254C932.721 895.692 932.52 895.126 932.298 894.567C928.666 885.437 923.765 876.528 917.653 868.313C916.148 866.291 897.231 846.345 895.75 849.398C895.896 849.841 896.202 850.209 896.668 850.501C896.696 850.535 896.696 850.516 896.68 850.467C897.791 852.391 900.95 855.362 901.934 857.048C904.411 861.29 906.335 865.792 908.291 870.207C912.423 879.539 916.256 888.965 919.972 898.411C920.838 900.611 921.739 902.799 922.66 904.98C913.175 890.316 900.523 877.004 883.105 869.383C889.054 872.627 892.954 878.73 896.972 883.404C901.817 889.04 906.92 894.525 911.775 900.156C917.501 906.798 924.238 913.792 929.745 921.142C935.08 933.147 940.264 945.166 943.464 957.785C942.153 953.425 943.361 947.4 943.137 942.824C942.959 939.181 942.561 935.569 942.017 931.963C942.69 933.589 943.27 935.217 943.532 936.731C943.293 934.192 943.016 931.669 942.72 929.159C943.481 926.809 944.229 924.616 944.735 922.81C947.324 913.544 950.408 904.438 954.607 895.562C958.493 887.352 962.95 879.246 967.807 871.388C970.072 867.724 972.369 864.074 974.651 860.417C976.145 858.023 977.568 854.191 979.647 851.897C966.204 865.072 951.515 878.343 942.986 894.152Z" fill="#DFE0DF"/>
</g>
<g opacity="0.3">
<path fill-rule="evenodd" clip-rule="evenodd" d="M1365.81 72.2988C1365.81 91.7748 1367.25 107.563 1386.57 107.563C1405.89 107.563 1407.32 91.7748 1407.32 72.2988" fill="#DFE0DF"/>
<path fill-rule="evenodd" clip-rule="evenodd" d="M1392.31 60.1478C1391.61 61.4552 1390.98 62.7888 1390.42 64.1424C1390.4 61.3547 1390.54 58.5466 1390.94 55.7001C1391.61 50.8241 1392.64 45.9736 1393.61 41.1308C1394.3 37.6505 1394.26 31.3994 1396.89 28.626C1397.62 28.0266 1397.79 29.2025 1397.79 29.7128C1397.8 29.8206 1397.79 27.6299 1397.09 28.0115C1392.92 30.313 1391.56 37.5496 1390.23 41.1728C1388.28 46.4614 1386.62 51.8676 1385.94 57.3699C1385.76 58.7599 1385.67 60.1494 1385.65 61.5365C1385.51 61.1655 1385.37 60.7917 1385.23 60.4219C1382.82 54.3898 1379.57 48.5039 1375.51 43.0756C1374.52 41.7399 1361.97 28.561 1360.99 30.5781C1361.09 30.8711 1361.29 31.1142 1361.6 31.3074C1361.62 31.3295 1361.62 31.3172 1361.61 31.2846C1362.34 32.5556 1364.44 34.5188 1365.09 35.6326C1366.73 38.4354 1368.01 41.4098 1369.31 44.3274C1372.05 50.4932 1374.59 56.7211 1377.05 62.962C1377.63 64.4157 1378.22 65.8613 1378.84 67.3023C1372.55 57.6138 1364.15 48.8181 1352.6 43.7828C1356.55 45.9262 1359.14 49.9588 1361.8 53.0464C1365.01 56.7705 1368.4 60.3946 1371.62 64.1146C1375.41 68.5031 1379.88 73.1245 1383.53 77.9808C1387.07 85.9128 1390.51 93.8534 1392.63 102.192C1391.76 99.3107 1392.56 95.3296 1392.41 92.3061C1392.3 89.8996 1392.03 87.5128 1391.67 85.1304C1392.12 86.2049 1392.5 87.2803 1392.68 88.2805C1392.52 86.6029 1392.33 84.9359 1392.14 83.2775C1392.64 81.7249 1393.14 80.2761 1393.47 79.0827C1395.19 72.9606 1397.24 66.944 1400.02 61.0797C1402.6 55.6551 1405.55 50.2995 1408.77 45.1074C1410.28 42.6866 1411.8 40.2748 1413.31 37.8589C1414.3 36.2773 1415.25 33.745 1416.63 32.2296C1407.71 40.9346 1397.97 49.7026 1392.31 60.1478Z" fill="#DFE0DF"/>
</g>
<g opacity="0.3" clip-path="url(#clip2_562_7156)">
<path d="M1000.95 411.277L993.605 403.478C992.37 402.167 990.368 402.166 989.132 403.477L989.132 403.478L969.59 424.238C968.404 425.498 967.738 427.206 967.738 428.986V566.489" stroke="white" stroke-width="8"/>
<path d="M957.46 566.07H978.413C979.068 566.07 979.599 566.634 979.599 567.33V567.749C979.599 568.445 979.068 569.009 978.413 569.009H957.46C956.805 569.009 956.274 568.445 956.274 567.749V567.33C956.274 566.634 956.805 566.07 957.46 566.07Z" fill="white"/>
<path d="M996.874 407.067C991.969 412.276 991.969 420.72 996.874 425.929L1004.36 433.876L1022.12 415.014L1014.64 407.067C1009.73 401.859 1001.78 401.859 996.874 407.067Z" fill="white" stroke="white"/>
<path d="M1004.39 434.012C1004.39 434.014 1004.4 434.023 1004.43 434.033C1004.46 434.043 1004.51 434.053 1004.59 434.052C1004.76 434.048 1005 433.997 1005.31 433.874C1005.94 433.63 1006.78 433.147 1007.76 432.444C1009.73 431.045 1012.21 428.835 1014.75 426.147C1017.28 423.458 1019.36 420.819 1020.68 418.733C1021.34 417.686 1021.79 416.801 1022.02 416.131C1022.14 415.795 1022.19 415.541 1022.19 415.365C1022.19 415.279 1022.18 415.224 1022.17 415.191C1022.16 415.162 1022.15 415.153 1022.15 415.151L1022.15 415.151L1022.15 415.151C1022.15 415.149 1022.14 415.14 1022.11 415.13C1022.08 415.12 1022.03 415.11 1021.95 415.112C1021.79 415.115 1021.55 415.166 1021.23 415.289C1020.6 415.533 1019.76 416.017 1018.78 416.719C1016.81 418.119 1014.33 420.328 1011.8 423.016C1009.26 425.705 1007.18 428.344 1005.87 430.43C1005.2 431.477 1004.75 432.362 1004.52 433.032C1004.4 433.368 1004.36 433.622 1004.35 433.798C1004.35 433.884 1004.36 433.94 1004.37 433.972C1004.38 434.002 1004.39 434.011 1004.39 434.012Z" fill="white" stroke="white"/>
</g>
<g opacity="0.3" clip-path="url(#clip3_562_7156)">
<path d="M1284.01 512.001C1316.84 512.001 1343.46 483.829 1343.46 449.077C1343.46 414.325 1316.84 386.152 1284.01 386.152C1251.18 386.152 1224.56 414.325 1224.56 449.077C1224.56 483.829 1251.18 512.001 1284.01 512.001Z" fill="white"/>
<path d="M1284.01 402.774C1285.87 402.774 1287.37 401.179 1287.37 399.212C1287.37 397.245 1285.87 395.65 1284.01 395.65C1282.15 395.65 1280.64 397.245 1280.64 399.212C1280.64 401.179 1282.15 402.774 1284.01 402.774Z" fill="#292929"/>
<path d="M1236.9 452.639C1238.76 452.639 1240.26 451.044 1240.26 449.077C1240.26 447.11 1238.76 445.516 1236.9 445.516C1235.04 445.516 1233.53 447.11 1233.53 449.077C1233.53 451.044 1235.04 452.639 1236.9 452.639Z" fill="#292929"/>
<path d="M1331.12 452.637C1332.98 452.637 1334.48 451.043 1334.48 449.075C1334.48 447.108 1332.98 445.514 1331.12 445.514C1329.26 445.514 1327.75 447.108 1327.75 449.075C1327.75 451.043 1329.26 452.637 1331.12 452.637Z" fill="#292929"/>
<path d="M1284.01 502.502C1285.87 502.502 1287.37 500.908 1287.37 498.941C1287.37 496.974 1285.87 495.379 1284.01 495.379C1282.15 495.379 1280.64 496.974 1280.64 498.941C1280.64 500.908 1282.15 502.502 1284.01 502.502Z" fill="#292929"/>
<path fill-rule="evenodd" clip-rule="evenodd" d="M1284.01 406.336L1286.25 447.89H1281.76L1284.01 406.336Z" fill="#ADADAD"/>
<path fill-rule="evenodd" clip-rule="evenodd" d="M1303.86 470.089L1283.24 451.62L1286.41 448.262L1303.86 470.089Z" fill="#ADADAD"/>
<path d="M1284.01 453.824C1286.49 453.824 1288.5 451.698 1288.5 449.075C1288.5 446.452 1286.49 444.326 1284.01 444.326C1281.53 444.326 1279.52 446.452 1279.52 449.075C1279.52 451.698 1281.53 453.824 1284.01 453.824Z" fill="#DFE0DF"/>
</g>
<g opacity="0.3" clip-path="url(#clip4_562_7156)">
<path d="M1142.94 665.988H1125.8C1125.24 665.988 1124.79 666.464 1124.79 667.051V669.709C1124.79 670.296 1125.24 670.772 1125.8 670.772H1142.94C1143.49 670.772 1143.94 670.296 1143.94 669.709V667.051C1143.94 666.464 1143.49 665.988 1142.94 665.988Z" fill="white"/>
<path fill-rule="evenodd" clip-rule="evenodd" d="M1129.83 650.573C1131.99 643.177 1133.21 635.381 1133.47 627.186H1134.87H1135.77C1136.03 635.381 1137.24 643.177 1139.41 650.573H1142.68C1147 650.573 1150.5 654.262 1150.5 658.812C1150.5 663.362 1147 667.051 1142.68 667.051H1126.05C1121.73 667.051 1118.24 663.362 1118.24 658.812C1118.24 654.262 1121.73 650.573 1126.05 650.573H1129.83Z" fill="#DFE0DF"/>
<path fill-rule="evenodd" clip-rule="evenodd" d="M1116.53 590.338C1122.31 589.743 1128.09 589.445 1133.86 589.445C1139.64 589.445 1145.41 589.743 1151.19 590.338L1153.52 632.571C1146.97 633.232 1140.42 633.563 1133.86 633.563C1127.31 633.563 1120.76 633.232 1114.2 632.571L1116.53 590.338Z" fill="white"/>
<path fill-rule="evenodd" clip-rule="evenodd" d="M1113.2 670.771H1155.03H1165.62V726.051H1155.03V682.465H1113.2V726.051H1102.61V670.771H1113.2Z" fill="#ADADAD"/>
</g>
<g opacity="0.3" clip-path="url(#clip5_562_7156)">
<path fill-rule="evenodd" clip-rule="evenodd" d="M167.462 75.8688C166.124 71.1445 162.98 67.447 159.717 64.059C153.364 57.4635 149.947 53.3856 147.683 43.7376C146.352 38.0634 144.997 32.0504 140.773 27.9337C137.698 24.9358 132.406 22.4171 128.294 24.5638C121.967 28.5583 120.268 36.7555 120.906 44.0957C121.697 53.1934 125.714 58.803 133.432 62.1539C137.781 64.0411 140.671 66.5313 143.032 70.8704C144.92 74.34 146.021 78.6848 148.394 81.8302C151.941 86.5321 156.381 88.6223 161.853 87.8412C156.727 77.8662 150.739 67.7975 143.517 59.3991C142.841 58.5547 138.853 55.3229 139.657 53.8839C140.543 52.2995 144.637 58.2513 144.608 58.2153C146.707 60.764 148.649 63.4723 150.556 66.2066C150.552 66.2093 150.546 66.2108 150.541 66.2136C152.504 69.0194 154.452 71.8665 156.363 74.7493C157.136 75.9687 157.888 77.2037 158.608 78.4697C159.665 80.3274 161.342 85.5997 163.071 86.742C163.441 86.9862 163.783 87.1228 164.103 87.1791C165.283 89.2225 166.431 91.2824 167.522 93.3665C170.374 98.8099 172.821 104.557 173.944 110.703C174.272 112.497 174.04 119.206 175.197 120.501C177.314 122.87 176.694 118.309 176.567 116.932C175.516 105.532 171.647 95.8195 166.03 86.2354C167.755 83.8512 168.004 77.783 167.462 75.8688Z" fill="white"/>
<path fill-rule="evenodd" clip-rule="evenodd" d="M94.9809 81.3772C97.2119 78.5965 102.575 78.1247 105.855 78.3109C109.914 78.5411 114.083 79.5863 117.944 80.8501C124.305 82.9317 130.486 86.7304 136.088 90.4071C136.763 90.8502 145.081 96.1413 144.345 97.0699C143.615 97.9899 135.45 91.7048 133.631 90.6215C129.747 88.3092 126.186 85.5747 121.906 84.0478C117.474 82.4664 112.786 81.8403 108.126 81.8835C107.528 81.8891 105.577 81.448 105.534 82.384C105.493 83.2995 108.722 82.8219 109.291 82.8274C111.642 82.8502 114.008 83.0843 116.326 83.5153C120.668 84.3228 124.751 85.9496 128.471 88.4447C127.433 90.9973 124.945 92.1742 122.335 91.5355C120.079 90.9831 117.881 89.6213 115.672 89.2275C114.151 88.9564 112.628 89.1177 111.152 89.571C107.261 90.7672 105.017 93.2177 100.739 91.5131C97.3856 90.1769 91.7768 85.3761 94.9809 81.3772Z" fill="white"/>
<path fill-rule="evenodd" clip-rule="evenodd" d="M97.5041 55.0637H98.5596C98.4856 53.6468 98.3893 52.2322 98.163 50.8312C97.3145 45.5795 94.6617 37.8662 88.8433 37.0138C88.6286 36.982 87.8391 36.9767 86.8826 37.0354C86.4293 36.7703 85.9215 36.61 85.3865 36.5732C80.4327 36.191 74.9006 40.3732 72.511 44.7254C70.5847 48.2344 70.9092 52.8422 72.099 56.5702C72.8958 59.0661 74.6347 62.6246 77.5345 62.6593C81.1625 62.7027 81.3375 58.0102 81.4077 55.267C81.5009 51.62 81.9413 48.443 84.6874 45.9571C85.3274 45.378 86.027 44.8685 86.6735 44.2974C87.6858 43.4035 88.8045 42.4883 88.9349 41.0095C89.1149 38.9693 88.0145 38.6022 86.3342 38.9812C86.0478 39.0457 83.1625 40.4006 83.5897 39.3297C83.7201 39.0026 84.1965 38.7433 84.7977 38.5491C86.3536 38.3721 88.209 38.1667 88.7427 38.2894C94.4994 39.611 96.7408 47.9558 97.336 53.2576C97.4034 53.858 97.4573 54.4604 97.5041 55.0637Z" fill="white"/>
</g>
<g opacity="0.3" clip-path="url(#clip6_562_7156)">
<path fill-rule="evenodd" clip-rule="evenodd" d="M691.844 783.302C689.897 776.438 685.327 771.067 680.584 766.144C671.349 756.562 666.382 750.638 663.091 736.621C661.155 728.377 659.185 719.641 653.046 713.66C648.576 709.305 640.882 705.646 634.904 708.765C625.707 714.568 623.237 726.477 624.165 737.141C625.314 750.359 631.154 758.508 642.374 763.377C648.695 766.118 652.898 769.736 656.329 776.04C659.074 781.081 660.675 787.393 664.124 791.963C669.281 798.794 675.734 801.831 683.689 800.696C676.238 786.204 667.533 771.576 657.034 759.374C656.051 758.148 650.254 753.452 651.423 751.362C652.711 749.06 658.662 757.707 658.62 757.655C661.671 761.357 664.495 765.292 667.267 769.265C667.26 769.268 667.252 769.271 667.244 769.275C670.099 773.351 672.931 777.487 675.709 781.676C676.832 783.447 677.926 785.241 678.972 787.081C680.509 789.78 682.946 797.439 685.46 799.099C685.998 799.454 686.495 799.652 686.96 799.734C688.675 802.703 690.344 805.695 691.931 808.723C696.076 816.632 699.634 824.982 701.266 833.91C701.743 836.516 701.406 846.264 703.088 848.145C706.165 851.586 705.263 844.96 705.079 842.96C703.551 826.397 697.927 812.287 689.761 798.363C692.27 794.899 692.632 786.083 691.844 783.302Z" fill="white"/>
<path fill-rule="evenodd" clip-rule="evenodd" d="M586.477 791.306C589.72 787.266 597.517 786.581 602.285 786.851C608.185 787.186 614.245 788.704 619.859 790.54C629.106 793.564 638.091 799.083 646.235 804.425C647.216 805.069 659.308 812.756 658.237 814.105C657.177 815.441 645.307 806.31 642.662 804.736C637.017 801.377 631.84 797.404 625.617 795.186C619.174 792.888 612.361 791.979 605.586 792.042C604.716 792.05 601.88 791.409 601.819 792.769C601.759 794.099 606.452 793.405 607.279 793.413C610.697 793.446 614.136 793.786 617.506 794.412C623.819 795.586 629.754 797.949 635.161 801.574C633.652 805.282 630.036 806.992 626.242 806.064C622.963 805.262 619.766 803.283 616.555 802.711C614.344 802.317 612.13 802.552 609.985 803.21C604.329 804.948 601.067 808.508 594.848 806.032C589.973 804.09 581.819 797.116 586.477 791.306Z" fill="white"/>
<path fill-rule="evenodd" clip-rule="evenodd" d="M590.145 753.075H591.679C591.572 751.016 591.432 748.961 591.103 746.926C589.869 739.296 586.013 728.09 577.555 726.851C577.243 726.805 576.095 726.797 574.704 726.883C574.045 726.498 573.307 726.265 572.529 726.211C565.328 725.656 557.286 731.732 553.812 738.055C551.012 743.153 551.484 749.847 553.213 755.263C554.372 758.89 556.899 764.059 561.115 764.11C566.389 764.173 566.643 757.356 566.745 753.37C566.881 748.072 567.521 743.456 571.513 739.844C572.444 739.003 573.461 738.263 574.4 737.433C575.872 736.134 577.498 734.805 577.688 732.656C577.95 729.692 576.35 729.159 573.907 729.71C573.491 729.803 569.296 731.772 569.917 730.216C570.107 729.741 570.8 729.364 571.674 729.082C573.935 728.825 576.633 728.526 577.408 728.704C585.777 730.625 589.035 742.748 589.901 750.451C589.998 751.323 590.077 752.198 590.145 753.075Z" fill="white"/>
</g>
<g opacity="0.3">
<path fill-rule="evenodd" clip-rule="evenodd" d="M385.004 101.477C385.004 123.848 386.649 141.983 408.725 141.983C430.801 141.983 432.445 123.848 432.445 101.477" fill="#DFE0DF"/>
<path fill-rule="evenodd" clip-rule="evenodd" d="M415.291 87.5193C414.482 89.0211 413.761 90.5529 413.123 92.1077C413.101 88.9057 413.266 85.6801 413.716 82.4105C414.486 76.8098 415.662 71.2381 416.767 65.6755C417.561 61.6779 417.511 54.4975 420.525 51.3119C421.352 50.6234 421.551 51.974 421.551 52.5602C421.561 52.6841 421.549 50.1677 420.746 50.606C415.978 53.2496 414.433 61.562 412.906 65.7238C410.678 71.7985 408.783 78.0084 408.003 84.3285C407.806 85.9251 407.698 87.5212 407.673 89.1145C407.511 88.6884 407.359 88.259 407.191 87.8342C404.438 80.9054 400.724 74.1446 396.091 67.9094C394.951 66.3752 380.613 51.2372 379.491 53.5542C379.602 53.8907 379.834 54.1699 380.187 54.3919C380.208 54.4173 380.209 54.4032 380.196 54.3656C381.039 55.8256 383.433 58.0807 384.178 59.36C386.055 62.5794 387.514 65.996 388.996 69.3473C392.128 76.4296 395.033 83.5833 397.849 90.7519C398.505 92.4217 399.189 94.0821 399.886 95.7374C392.698 84.6087 383.109 74.5055 369.908 68.7217C374.417 71.1837 377.373 75.8158 380.417 79.3623C384.09 83.64 387.957 87.8028 391.637 92.0758C395.976 97.1166 401.082 102.425 405.256 108.003C409.299 117.114 413.228 126.235 415.654 135.813C414.66 132.504 415.576 127.931 415.406 124.458C415.271 121.694 414.97 118.952 414.557 116.216C415.067 117.45 415.506 118.685 415.705 119.834C415.524 117.907 415.314 115.992 415.089 114.087C415.667 112.304 416.234 110.64 416.617 109.269C418.579 102.237 420.917 95.3258 424.099 88.5898C427.044 82.3588 430.422 76.2072 434.103 70.2432C435.82 67.4626 437.561 64.6923 439.29 61.9172C440.423 60.1006 441.501 57.1918 443.077 55.4511C432.888 65.4502 421.756 75.5215 415.291 87.5193Z" fill="#DFE0DF"/>
</g>
<g opacity="0.3">
<path fill-rule="evenodd" clip-rule="evenodd" d="M253.651 828.645C253.651 858.122 255.821 882.018 284.95 882.018C314.078 882.018 316.248 858.122 316.248 828.645" fill="#DFE0DF"/>
<path fill-rule="evenodd" clip-rule="evenodd" d="M293.614 810.253C292.546 812.232 291.594 814.25 290.753 816.299C290.724 812.08 290.941 807.83 291.536 803.522C292.552 796.142 294.103 788.8 295.561 781.471C296.609 776.203 296.543 766.742 300.52 762.545C301.611 761.637 301.873 763.417 301.873 764.189C301.887 764.353 301.87 761.037 300.812 761.615C294.52 765.098 292.481 776.051 290.466 781.534C287.527 789.539 285.027 797.721 283.997 806.049C283.737 808.153 283.595 810.256 283.563 812.355C283.349 811.794 283.148 811.228 282.926 810.668C279.294 801.538 274.393 792.63 268.281 784.414C266.776 782.393 247.858 762.446 246.378 765.499C246.524 765.943 246.83 766.31 247.296 766.603C247.323 766.636 247.324 766.618 247.308 766.568C248.419 768.492 251.578 771.463 252.562 773.149C255.039 777.391 256.963 781.893 258.919 786.309C263.051 795.641 266.884 805.067 270.6 814.513C271.466 816.713 272.367 818.901 273.287 821.082C263.803 806.418 251.151 793.106 233.733 785.485C239.682 788.729 243.582 794.832 247.6 799.505C252.445 805.142 257.548 810.627 262.403 816.257C268.129 822.899 274.866 829.894 280.373 837.244C285.708 849.249 290.892 861.267 294.092 873.887C292.781 869.527 293.989 863.501 293.765 858.925C293.587 855.283 293.189 851.67 292.645 848.065C293.318 849.691 293.898 851.319 294.16 852.832C293.921 850.293 293.644 847.77 293.348 845.26C294.109 842.911 294.857 840.718 295.363 838.911C297.952 829.646 301.036 820.539 305.235 811.664C309.121 803.454 313.578 795.348 318.435 787.489C320.7 783.826 322.997 780.175 325.279 776.519C326.773 774.125 328.196 770.292 330.275 767.999C316.831 781.174 302.143 794.444 293.614 810.253Z" fill="#DFE0DF"/>
</g>
<g opacity="0.3" clip-path="url(#clip7_562_7156)">
<path d="M351.573 327.379L344.233 319.58C342.998 318.268 340.996 318.268 339.76 319.579L339.759 319.58L320.218 340.34C319.032 341.599 318.366 343.307 318.366 345.088V482.59" stroke="white" stroke-width="8"/>
<path d="M308.088 482.172H329.041C329.696 482.172 330.227 482.736 330.227 483.431V483.851C330.227 484.546 329.696 485.11 329.041 485.11H308.088C307.433 485.11 306.902 484.546 306.902 483.851V483.431C306.902 482.736 307.433 482.172 308.088 482.172Z" fill="white"/>
<path d="M347.502 323.169C342.596 328.377 342.597 336.822 347.502 342.03L354.986 349.977L372.75 331.115L365.266 323.169C360.36 317.96 352.407 317.96 347.502 323.169Z" fill="white" stroke="white"/>
<path d="M355.017 350.114C355.019 350.116 355.027 350.125 355.055 350.134C355.086 350.145 355.138 350.155 355.219 350.153C355.385 350.15 355.624 350.098 355.94 349.976C356.571 349.731 357.405 349.248 358.391 348.546C360.356 347.146 362.841 344.937 365.373 342.248C367.905 339.56 369.986 336.921 371.304 334.835C371.965 333.788 372.421 332.902 372.65 332.233C372.766 331.896 372.815 331.643 372.818 331.466C372.819 331.38 372.81 331.325 372.8 331.293C372.791 331.263 372.783 331.254 372.781 331.252L372.781 331.252L372.781 331.252C372.779 331.25 372.771 331.241 372.743 331.232C372.712 331.222 372.66 331.211 372.579 331.213C372.413 331.216 372.174 331.268 371.857 331.391C371.227 331.635 370.393 332.118 369.407 332.82C367.442 334.22 364.957 336.429 362.425 339.118C359.893 341.806 357.812 344.445 356.494 346.532C355.832 347.578 355.377 348.464 355.147 349.134C355.032 349.47 354.983 349.723 354.98 349.9C354.979 349.986 354.988 350.041 354.998 350.073C355.007 350.103 355.015 350.112 355.017 350.114Z" fill="white" stroke="white"/>
</g>
<g opacity="0.3" clip-path="url(#clip8_562_7156)">
<path d="M631.588 427.026C664.421 427.026 691.037 398.854 691.037 364.102C691.037 329.35 664.421 301.178 631.588 301.178C598.755 301.178 572.138 329.35 572.138 364.102C572.138 398.854 598.755 427.026 631.588 427.026Z" fill="white"/>
<path d="M631.588 317.799C633.446 317.799 634.953 316.205 634.953 314.238C634.953 312.27 633.446 310.676 631.588 310.676C629.729 310.676 628.223 312.27 628.223 314.238C628.223 316.205 629.729 317.799 631.588 317.799Z" fill="#292929"/>
<path d="M584.477 367.665C586.335 367.665 587.842 366.07 587.842 364.103C587.842 362.136 586.335 360.541 584.477 360.541C582.618 360.541 581.112 362.136 581.112 364.103C581.112 366.07 582.618 367.665 584.477 367.665Z" fill="#292929"/>
<path d="M678.699 367.663C680.557 367.663 682.064 366.068 682.064 364.101C682.064 362.134 680.557 360.539 678.699 360.539C676.84 360.539 675.333 362.134 675.333 364.101C675.333 366.068 676.84 367.663 678.699 367.663Z" fill="#292929"/>
<path d="M631.588 417.528C633.446 417.528 634.953 415.933 634.953 413.966C634.953 411.999 633.446 410.404 631.588 410.404C629.729 410.404 628.223 411.999 628.223 413.966C628.223 415.933 629.729 417.528 631.588 417.528Z" fill="#292929"/>
<path fill-rule="evenodd" clip-rule="evenodd" d="M631.587 321.361L633.831 362.915H629.344L631.587 321.361Z" fill="#ADADAD"/>
<path fill-rule="evenodd" clip-rule="evenodd" d="M651.44 385.115L630.818 366.645L633.99 363.287L651.44 385.115Z" fill="#ADADAD"/>
<path d="M631.588 368.85C634.066 368.85 636.075 366.723 636.075 364.101C636.075 361.478 634.066 359.352 631.588 359.352C629.11 359.352 627.101 361.478 627.101 364.101C627.101 366.723 629.11 368.85 631.588 368.85Z" fill="#DFE0DF"/>
</g>
<g opacity="0.3" clip-path="url(#clip9_562_7156)">
<path d="M180.381 647.531C200.867 647.531 217.473 629.953 217.473 608.27C217.473 586.587 200.867 569.01 180.381 569.01C159.895 569.01 143.289 586.587 143.289 608.27C143.289 629.953 159.895 647.531 180.381 647.531Z" fill="white"/>
<path d="M180.381 579.38C181.54 579.38 182.48 578.385 182.48 577.158C182.48 575.931 181.54 574.936 180.381 574.936C179.221 574.936 178.281 575.931 178.281 577.158C178.281 578.385 179.221 579.38 180.381 579.38Z" fill="#292929"/>
<path d="M150.987 610.493C152.146 610.493 153.086 609.498 153.086 608.271C153.086 607.044 152.146 606.049 150.987 606.049C149.827 606.049 148.887 607.044 148.887 608.271C148.887 609.498 149.827 610.493 150.987 610.493Z" fill="#292929"/>
<path d="M209.775 610.491C210.934 610.491 211.874 609.497 211.874 608.269C211.874 607.042 210.934 606.047 209.775 606.047C208.615 606.047 207.675 607.042 207.675 608.269C207.675 609.497 208.615 610.491 209.775 610.491Z" fill="#292929"/>
<path d="M180.381 641.605C181.54 641.605 182.48 640.61 182.48 639.382C182.48 638.155 181.54 637.16 180.381 637.16C179.221 637.16 178.281 638.155 178.281 639.382C178.281 640.61 179.221 641.605 180.381 641.605Z" fill="#292929"/>
<path fill-rule="evenodd" clip-rule="evenodd" d="M180.381 581.602L181.78 607.528H178.981L180.381 581.602Z" fill="#ADADAD"/>
<path fill-rule="evenodd" clip-rule="evenodd" d="M192.767 621.382L179.9 609.858L181.88 607.763L192.767 621.382Z" fill="#ADADAD"/>
<path d="M180.381 611.233C181.927 611.233 183.18 609.906 183.18 608.27C183.18 606.633 181.927 605.307 180.381 605.307C178.835 605.307 177.582 606.633 177.582 608.27C177.582 609.906 178.835 611.233 180.381 611.233Z" fill="#DFE0DF"/>
</g>
<g opacity="0.3" clip-path="url(#clip10_562_7156)">
<path d="M474.58 957.312C489.173 957.312 501.002 944.791 501.002 929.345C501.002 913.9 489.173 901.379 474.58 901.379C459.988 901.379 448.158 913.9 448.158 929.345C448.158 944.791 459.988 957.312 474.58 957.312Z" fill="white"/>
<path d="M474.58 908.766C475.406 908.766 476.076 908.057 476.076 907.183C476.076 906.308 475.406 905.6 474.58 905.6C473.754 905.6 473.084 906.308 473.084 907.183C473.084 908.057 473.754 908.766 474.58 908.766Z" fill="#292929"/>
<path d="M453.642 930.928C454.468 930.928 455.138 930.219 455.138 929.345C455.138 928.47 454.468 927.762 453.642 927.762C452.816 927.762 452.146 928.47 452.146 929.345C452.146 930.219 452.816 930.928 453.642 930.928Z" fill="#292929"/>
<path d="M495.518 930.928C496.344 930.928 497.014 930.219 497.014 929.345C497.014 928.47 496.344 927.762 495.518 927.762C494.692 927.762 494.022 928.47 494.022 929.345C494.022 930.219 494.692 930.928 495.518 930.928Z" fill="#292929"/>
<path d="M474.58 953.09C475.406 953.09 476.076 952.381 476.076 951.507C476.076 950.633 475.406 949.924 474.58 949.924C473.754 949.924 473.084 950.633 473.084 951.507C473.084 952.381 473.754 953.09 474.58 953.09Z" fill="#292929"/>
<path fill-rule="evenodd" clip-rule="evenodd" d="M474.58 910.35L475.577 928.818H473.583L474.58 910.35Z" fill="#ADADAD"/>
<path fill-rule="evenodd" clip-rule="evenodd" d="M483.403 938.684L474.238 930.475L475.648 928.983L483.403 938.684Z" fill="#ADADAD"/>
<path d="M474.58 931.456C475.681 931.456 476.574 930.511 476.574 929.345C476.574 928.179 475.681 927.234 474.58 927.234C473.479 927.234 472.586 928.179 472.586 929.345C472.586 930.511 473.479 931.456 474.58 931.456Z" fill="#DFE0DF"/>
</g>
<g opacity="0.3" clip-path="url(#clip11_562_7156)">
<path d="M493.563 582.09H476.426C475.869 582.09 475.417 582.566 475.417 583.153V585.811C475.417 586.398 475.869 586.874 476.426 586.874H493.563C494.12 586.874 494.571 586.398 494.571 585.811V583.153C494.571 582.566 494.12 582.09 493.563 582.09Z" fill="white"/>
<path fill-rule="evenodd" clip-rule="evenodd" d="M480.458 566.675C482.622 559.279 483.834 551.483 484.096 543.287H485.498H486.397C486.658 551.483 487.871 559.279 490.035 566.675H493.311C497.626 566.675 501.124 570.363 501.124 574.914C501.124 579.464 497.626 583.152 493.311 583.152H476.678C472.363 583.152 468.865 579.464 468.865 574.914C468.865 570.363 472.363 566.675 476.678 566.675H480.458Z" fill="#DFE0DF"/>
<path fill-rule="evenodd" clip-rule="evenodd" d="M467.162 506.439C472.938 505.844 478.714 505.547 484.491 505.547C490.267 505.547 496.043 505.844 501.819 506.439L504.148 548.672C497.596 549.334 491.043 549.664 484.491 549.664C477.938 549.664 471.385 549.334 464.833 548.672L467.162 506.439Z" fill="white"/>
<path fill-rule="evenodd" clip-rule="evenodd" d="M463.824 586.873H505.661H516.246V642.153H505.661V598.567H463.824V642.153H453.239V586.873H463.824Z" fill="#ADADAD"/>
</g>
</g>
<defs>
<clipPath id="clip0_562_7156">
<rect width="109.753" height="114.017" fill="white" transform="translate(720.508 101.109)"/>
</clipPath>
<clipPath id="clip1_562_7156">
<rect width="159.548" height="165.647" fill="white" transform="translate(1201.19 781.984)"/>
</clipPath>
<clipPath id="clip2_562_7156">
<rect width="68.0875" height="172.1" fill="white" transform="matrix(-1 0 0 1 1024.36 396.908)"/>
</clipPath>
<clipPath id="clip3_562_7156">
<rect width="118.899" height="125.849" fill="white" transform="translate(1224.56 386.152)"/>
</clipPath>
<clipPath id="clip4_562_7156">
<rect width="63.0063" height="136.605" fill="white" transform="translate(1102.61 589.445)"/>
</clipPath>
<clipPath id="clip5_562_7156">
<rect width="109.753" height="114.017" fill="white" transform="translate(71.1362 17.2109)"/>
</clipPath>
<clipPath id="clip6_562_7156">
<rect width="159.548" height="165.647" fill="white" transform="translate(551.814 698.084)"/>
</clipPath>
<clipPath id="clip7_562_7156">
<rect width="68.0875" height="172.1" fill="white" transform="matrix(-1 0 0 1 374.989 313.01)"/>
</clipPath>
<clipPath id="clip8_562_7156">
<rect width="118.899" height="125.849" fill="white" transform="translate(572.138 301.178)"/>
</clipPath>
<clipPath id="clip9_562_7156">
<rect width="74.1849" height="78.521" fill="white" transform="translate(143.289 569.01)"/>
</clipPath>
<clipPath id="clip10_562_7156">
<rect width="52.844" height="55.9327" fill="white" transform="translate(448.158 901.379)"/>
</clipPath>
<clipPath id="clip11_562_7156">
<rect width="63.0064" height="136.606" fill="white" transform="translate(453.239 505.547)"/>
</clipPath>
</defs>
</svg>
