<svg width="230" height="544" viewBox="0 0 230 544" fill="none" xmlns="http://www.w3.org/2000/svg">
<g clip-path="url(#clip0_562_6989)">
<path d="M76.7871 34.2357L101.947 9.02992C106.179 4.79074 113.043 4.78932 117.277 9.02676L117.28 9.02992L184.263 76.1243C188.327 80.1946 190.61 85.7142 190.61 91.4694V535.861" stroke="#CBCBCB" stroke-width="8"/>
<path d="M225.84 534.504H154.023C151.778 534.504 149.958 536.326 149.958 538.574V539.93C149.958 542.178 151.778 544 154.023 544H225.84C228.085 544 229.905 542.178 229.905 539.93V538.574C229.905 536.326 228.085 534.504 225.84 534.504Z" fill="#AFB9C5"/>
<path fill-rule="evenodd" clip-rule="evenodd" d="M91.9197 19.4468C109.382 36.9299 109.382 65.2754 91.9197 82.7585L65.0915 109.618L1.8536 46.3063L28.6818 19.4468C46.1445 1.96381 74.4571 1.96381 91.9197 19.4468Z" fill="#C5CFD6"/>
<path d="M28.3154 83.4681C45.778 100.951 62.7227 112.332 66.1623 108.889C69.6019 105.445 58.234 88.4806 40.7713 70.9976C23.3086 53.5146 6.36398 42.1334 2.92437 45.577C-0.515252 49.0207 10.8527 65.9851 28.3154 83.4681Z" fill="#F2F2F2"/>
</g>
<defs>
<clipPath id="clip0_562_6989">
<rect width="229" height="544" fill="white" transform="translate(0.905273)"/>
</clipPath>
</defs>
</svg>
