<svg width="281" height="402" viewBox="0 0 281 402" fill="none" xmlns="http://www.w3.org/2000/svg">
<path fill-rule="evenodd" clip-rule="evenodd" d="M186.865 60.7484C192.332 54.3475 196.032 46.5031 195.414 37.7132C193.633 12.3872 158.288 17.9586 151.413 30.741C144.538 43.5234 145.355 75.947 154.24 78.2316C157.784 79.1427 165.333 76.9109 173.016 72.2918L168.193 106.322H196.668L186.865 60.7484Z" fill="#B28B67"/>
<path fill-rule="evenodd" clip-rule="evenodd" d="M207.829 29.2841C208.749 28.375 209.251 27.0774 209.685 25.8453C210.135 24.5654 210.573 23.2723 210.872 21.9401C211.47 19.2783 211.476 16.2172 209.572 14.1503C208.046 12.4928 205.755 11.7494 203.64 11.5879C202.232 11.4801 200.785 11.6769 199.435 12.1196C198.095 12.5589 196.94 13.4343 195.642 13.9776C195.592 11.1092 195.099 8.10775 193.64 5.65849C192.237 3.30192 189.998 1.97949 187.449 1.62963C184.833 1.27059 182.249 1.88128 179.907 3.14471C179.32 3.46113 178.739 3.79262 178.183 4.16779C177.718 4.48197 177.234 4.86033 176.688 4.9881C176.079 5.1307 175.777 4.7799 175.381 4.33678C174.917 3.81723 174.394 3.35962 173.841 2.95394C171.395 1.16048 168.186 0.423083 165.352 1.4981C164.046 1.99339 162.776 2.83454 161.89 3.99363C161.101 5.02684 160.537 6.6658 159.448 7.38565C158.985 7.69124 158.659 7.28638 158.237 6.98716C157.605 6.53756 157.002 6.04144 156.362 5.60409C155.462 4.98963 154.489 4.53002 153.446 4.28944C151.92 3.93722 149.811 4.01977 149.375 6.01365C149.211 6.7626 149.336 7.56359 149.389 8.31818C149.462 9.35433 149.538 10.3901 149.628 11.4248C149.696 12.2103 149.783 12.969 149.932 13.7405C150.011 14.1517 150.259 14.9183 150.082 15.3301C149.861 15.8448 148.842 15.5522 148.406 15.5701C147.546 15.6055 146.682 15.756 145.886 16.1227C145.27 16.407 144.621 16.825 144.361 17.5299C144.201 17.9629 144.243 18.4077 144.319 18.8532C144.409 19.3878 144.306 19.6714 144.238 20.2108C143.083 19.6432 139.078 18.3821 138.574 20.4479C138.406 21.1357 138.788 21.9129 139.08 22.493C139.591 23.5104 140.261 24.4403 140.946 25.3272C142.376 27.1773 144.082 28.773 145.917 30.1377C143.767 31.0914 143.205 33.9046 145.067 35.5806C145.89 36.3206 146.995 36.4853 148.032 36.438C148.412 36.4207 148.959 36.2751 149.258 36.3411C149.418 36.3765 149.59 36.5124 149.813 36.5276C151.277 36.6276 152.929 36.2759 154.36 35.9519C156.909 35.3747 159.323 34.1699 161.294 32.335C161.799 31.8643 162.217 31.5933 162.898 31.6003C163.494 31.6063 164.079 31.7694 164.675 31.7844C166.251 31.8246 167.673 31.0559 169.137 30.5442C169.226 32.5168 169.789 34.6893 170.598 36.4639C171.258 37.911 172.636 38.1214 173.989 38.2483C178.318 38.6546 182.662 38.2012 186.997 38.2072C182.801 39.1532 178.465 39.5431 174.307 40.6562C172.427 41.1593 173.863 42.423 174.666 43.299C175.99 44.7415 176.974 46.5288 177.656 48.4118C179.709 45.7431 183.336 43.9848 186.551 44.8046C190.102 45.7103 192.602 50.5006 190.332 53.9444C189.013 55.9436 186.632 56.7154 184.651 57.5743C186.197 59.177 186.571 61.5441 187.501 63.5379C187.959 64.5212 188.603 65.633 189.629 65.9756C190.009 66.1025 190.454 66.1133 190.754 66.422C191.124 66.8041 191.213 67.2313 191.687 67.5597C193.577 68.8706 196.53 68.7696 198.205 67.0589C199.72 65.5118 199.326 63.0636 198.061 61.4951C200.075 60.6576 203.745 59.5804 202.944 56.4502C207.309 56.1611 217.907 49.1001 212.048 43.9404C215.264 42.128 218.217 37.6986 216.152 33.7941C214.562 30.7875 210.864 29.4435 207.829 29.2841Z" fill="#191847"/>
<path fill-rule="evenodd" clip-rule="evenodd" d="M248.133 254.256H156.474L144.464 401.001H280.905L248.133 254.256Z" fill="#C5CFD6"/>
<path fill-rule="evenodd" clip-rule="evenodd" d="M248.133 254.256H219.943L203.07 401.001H280.905L248.133 254.256Z" fill="black" fill-opacity="0.1"/>
<path fill-rule="evenodd" clip-rule="evenodd" d="M51.9769 229.114C42.2044 223.261 25.8085 230.781 25.8198 239.152C25.8535 264.199 48.7695 382.244 49.966 389.706C51.1625 397.168 63.9798 399.14 64.7261 389.731C65.9138 374.76 68.1203 322.933 65.9126 298.944C65.0013 289.042 64.0199 279.612 63.0537 271.198C75.0786 292.859 93.6757 323.871 118.845 364.235L132.509 358.009C121.779 322.747 112.981 297.853 106.114 283.327C94.3567 258.455 83.3322 237.156 78.6924 229.653C71.3938 217.852 58.6896 221.969 51.9769 229.114Z" fill="#B28B67"/>
<path fill-rule="evenodd" clip-rule="evenodd" d="M131.533 338.427L84.6358 227.613C73.401 209.586 41.9016 231.281 45.7329 241.736C54.4312 265.473 98.6687 342.319 101.26 349.391L131.533 338.427Z" fill="#3F9589"/>
<path fill-rule="evenodd" clip-rule="evenodd" d="M134.137 351.021C137.058 353.419 138.959 355.379 139.838 356.898C140.908 358.746 142.16 361.621 143.595 365.522C141.446 366.76 122.129 377.885 85.6432 398.896C81.2627 394.797 80.5802 391.616 83.5957 389.351C86.6111 387.087 89.0996 385.177 91.061 383.622L111.064 356.132C111.449 355.603 112.191 355.486 112.721 355.87C112.73 355.876 112.739 355.883 112.748 355.89L116.904 359.082C120.717 358.75 123.562 358.044 125.44 356.962C126.966 356.083 128.717 354.255 130.694 351.478C131.453 350.412 132.934 350.161 134.003 350.918C134.049 350.951 134.094 350.985 134.137 351.021Z" fill="#E4E4E4"/>
<path fill-rule="evenodd" clip-rule="evenodd" d="M67.7277 383.724C69.0551 387.259 69.7188 389.903 69.7188 391.658C69.7188 393.792 69.3623 396.906 68.6495 401C66.1675 401 43.8617 401 1.73195 401C-0.00699615 395.266 0.996819 392.17 4.74342 391.713C8.49001 391.256 11.6024 390.843 14.0805 390.474L45.1831 376.644C45.7816 376.378 46.483 376.646 46.7498 377.243C46.7544 377.253 46.7588 377.263 46.7631 377.274L48.7624 382.111C52.2307 383.725 55.0491 384.532 57.2176 384.532C58.9794 384.532 61.4125 383.823 64.5168 382.403C65.7081 381.858 67.1166 382.38 67.6627 383.568C67.6862 383.62 67.7079 383.672 67.7277 383.724Z" fill="#E4E4E4"/>
<path fill-rule="evenodd" clip-rule="evenodd" d="M22.5332 247.667C22.5332 279.107 37.5023 352.445 37.5118 359.367L69.7186 359.392C65.0045 293.954 63.3329 260.882 64.7038 260.177C66.7602 259.12 149.002 268.367 173.667 268.367C209.235 268.367 223.949 245.995 225.143 204.551H154.684C140.338 206.082 65.5081 221.137 37.7177 226.312C25.8201 228.528 22.5332 239.006 22.5332 247.667Z" fill="#449F93"/>
<path fill-rule="evenodd" clip-rule="evenodd" d="M143.709 130.82L102.528 108.322C95.6796 100.211 88.9323 93.911 82.2857 89.423C80.2548 88.5772 76.7031 88.0653 80.0246 93.9457C83.3461 99.826 86.5746 106.16 84.8824 107.972C83.1903 109.783 78.9707 107.253 76.952 110.263C75.6062 112.269 82.815 115.439 98.5783 119.773L128.501 147.101L143.709 130.82ZM79.2116 149.802L61.1225 139.89C58.5843 130.256 55.5503 125.409 52.0203 125.349C49.3086 124.09 54.0311 136.263 48.8904 135.208C43.7498 134.152 31.2031 124.844 29.0412 126.734C25.8428 129.53 28.6947 138.115 32.0548 142.385C38.335 150.367 43.5346 153.097 56.3864 156.671C63.106 158.54 70.371 162.286 78.1815 167.909L79.2116 149.802Z" fill="#997659"/>
<path fill-rule="evenodd" clip-rule="evenodd" d="M163.764 125.808C149.34 125.656 130.105 122.618 109.582 109.623L101.522 127.552C115.678 141.566 135.584 153.08 152.989 152.592C166.705 152.208 173.716 135.659 163.764 125.808Z" fill="#FCFCED"/>
<path fill-rule="evenodd" clip-rule="evenodd" d="M144.342 154.561C129.029 158.37 103.349 153.878 67.3041 141.084C58.3633 159.534 54.2303 172.687 54.9049 180.544C85.8264 196.655 112.329 203.838 134.163 204.313C133.469 217.235 135.046 229.532 140.344 240.768C151.235 263.866 215.005 242.474 236.447 246.685C249.875 203.188 223.912 185.511 223.891 157.68C223.868 127.201 199.333 80.2871 195.723 80.2871H162.803C160.987 103.564 151.845 129.217 144.342 154.561Z" fill="#FFFFF3"/>
</svg>
