<svg width="251" height="480" viewBox="0 0 251 480" fill="none" xmlns="http://www.w3.org/2000/svg">
<path fill-rule="evenodd" clip-rule="evenodd" d="M105.232 66.4523C101.754 59.1307 100.276 50.9047 103.041 42.8731C111.009 19.7317 142.422 33.7171 145.616 47.3318C148.81 60.9466 139.968 90.9377 131.152 90.8536C127.636 90.8201 121.187 86.8629 115.208 80.6491L111.199 113.54L84.7723 106.453L105.232 66.4523Z" fill="#D4A181"/>
<path fill-rule="evenodd" clip-rule="evenodd" d="M114.823 67.2466C109.861 72.6635 104.059 76.1891 99.5309 74.9748C90.9303 72.6683 87.8962 59.5197 91.2088 47.146C91.3252 46.7113 91.4494 46.2817 91.5812 45.8577C80.8105 49.6663 70.5015 60.1026 58.4635 56.8742C42.0859 52.4821 44.433 17.6757 67.3148 23.8122C82.8762 27.9854 89.9228 32.309 95.6205 37.436C97.9044 34.1139 100.715 31.5594 103.718 30.0546C104.477 29.5536 105.541 29.1644 106.851 28.8907C107.66 28.6935 108.475 28.5747 109.289 28.5391C113.659 28.1427 119.698 28.656 126.195 30.1573C127.408 30.4376 128.592 30.7419 129.739 31.0662C131.383 25.0007 137.622 21.4055 143.691 23.0333C149.773 24.6642 153.382 30.9204 151.752 37.0069C150.176 42.8932 144.278 46.4651 138.391 45.2187C134.797 45.3537 130.329 44.9625 125.513 44.0113C125.51 45.8632 125.234 47.894 124.64 50.1134C124.115 52.073 123.343 54.0933 122.38 56.0969C121.68 54.6011 120.522 53.4366 119.129 53.0632C115.234 52.0186 111.664 54.4986 110.752 57.9038C109.595 62.2256 111.251 66.0206 114.823 67.2466Z" fill="#191847"/>
<path fill-rule="evenodd" clip-rule="evenodd" d="M51.0635 207.314L92.8214 351.332L112.462 459.463H132.176L112.497 207.314H51.0635Z" fill="#BA8B72"/>
<path fill-rule="evenodd" clip-rule="evenodd" d="M32.2977 207.314C35.2114 282.131 34.0623 322.938 33.4102 329.735C32.758 336.533 29.0559 382.057 3.82812 461.745H24.3319C57.7419 385.298 69.405 339.774 73.2369 329.735C77.0687 319.697 88.386 278.89 104.909 207.314H32.2977Z" fill="#D4A181"/>
<path fill-rule="evenodd" clip-rule="evenodd" d="M50.168 207.314C61.0299 256.871 79.8163 335.977 106.527 444.631H135.36C137.49 333.108 128.431 259.707 112.742 207.314H50.168Z" fill="#69A1AC"/>
<path fill-rule="evenodd" clip-rule="evenodd" d="M32.1519 207.314C35.0055 282.131 27.6102 355.84 4.70215 445.796H35.4656C68.937 370.49 92.9271 297.145 109.323 207.314H32.1519Z" fill="#89C5CC"/>
<path fill-rule="evenodd" clip-rule="evenodd" d="M0.905273 476.578L2.0366 458.323C8.66037 460.262 16.9568 459.501 26.9258 456.041C37.645 463.64 51.139 468.829 67.4078 471.608C68.649 471.82 69.4835 472.999 69.2717 474.241C69.258 474.322 69.24 474.402 69.2177 474.48L67.6537 480.001H26.9258H3.16793L0.905273 476.578Z" fill="#191847"/>
<path fill-rule="evenodd" clip-rule="evenodd" d="M108.062 476.578L109.193 458.323C115.817 460.262 124.113 459.501 134.082 456.041C144.801 463.64 158.295 468.829 174.564 471.608C175.805 471.82 176.64 472.999 176.428 474.241C176.414 474.322 176.396 474.402 176.374 474.48L174.81 480.001H134.082H110.324L108.062 476.578Z" fill="#191847"/>
<path fill-rule="evenodd" clip-rule="evenodd" d="M132.631 143.174L175.361 128.691C183.198 122.133 190.636 117.278 197.676 114.127C199.739 113.663 203.185 113.77 199.059 118.798C194.932 123.827 190.818 129.302 192.116 131.304C193.414 133.307 197.83 131.609 199.237 134.804C200.175 136.934 192.823 138.74 177.183 140.222L144.297 161.172L132.631 143.174ZM190.485 171.967L209.259 165.577C213.272 156.854 216.954 152.759 220.304 153.291C223.081 152.549 216.576 163.318 221.617 163.174C226.658 163.03 240.087 156.288 241.816 158.443C244.375 161.632 240.24 169.307 236.347 172.8C229.069 179.33 223.692 181.053 210.934 182.3C204.263 182.953 196.762 185.296 188.431 189.331L190.485 171.967Z" fill="#D4A181"/>
<path fill-rule="evenodd" clip-rule="evenodd" d="M114.492 135.069C128.166 137.333 146.875 137.66 168.468 128.75L173.096 147.118C157.356 158.06 136.595 165.668 120.207 162.298C107.293 159.643 103.428 142.76 114.492 135.069Z" fill="#E4A300"/>
<path fill-rule="evenodd" clip-rule="evenodd" d="M128.06 165.61C141.913 171.784 166.963 171.807 203.21 165.679C208.584 184.689 210.294 197.868 208.342 205.215C176.388 215.348 150.109 217.742 129.369 214.547C127.864 226.932 124.315 238.344 117.423 248.127C103.254 268.239 46.4907 237.28 25.4976 237.697C20.0679 194.156 47.591 181.709 52.2662 155.287C57.386 126.353 88.4492 85.9077 91.865 86.5105L123.015 92.0078C120.84 114.411 125.2 140.295 128.06 165.61Z" fill="#FEB706"/>
</svg>
