<svg width="186" height="196" viewBox="0 0 186 196" fill="none" xmlns="http://www.w3.org/2000/svg">
<g clip-path="url(#clip0_548_8890)">
<path fill-rule="evenodd" clip-rule="evenodd" d="M38.3727 109.164C38.3727 157.122 42.5537 196 98.6725 196C154.791 196 158.972 157.122 158.972 109.164" fill="white"/>
<path fill-rule="evenodd" clip-rule="evenodd" d="M115.367 79.243C113.31 82.4624 111.476 85.7462 109.856 89.0793C109.799 82.2149 110.218 75.3001 111.363 68.2908C113.32 56.2843 116.31 44.3402 119.119 32.4151C121.138 23.8454 121.01 8.45243 128.673 1.62318C130.774 0.147271 131.28 3.04276 131.28 4.29935C131.306 4.56495 131.274 -0.829628 129.234 0.110047C117.112 5.77727 113.184 23.5969 109.303 32.5188C103.641 45.5414 98.8229 58.8538 96.8392 72.4026C96.3377 75.8253 96.065 79.247 96.002 82.6626C95.59 81.7491 95.2029 80.8285 94.7748 79.918C87.7782 65.0643 78.3361 50.5708 66.5598 37.2041C63.6612 33.9152 27.2136 1.46322 24.3604 6.43022C24.6419 7.15157 25.2313 7.75019 26.1301 8.22606C26.1829 8.28039 26.1844 8.25021 26.1536 8.16972C28.2942 11.2996 34.3803 16.1338 36.276 18.8764C41.0469 25.7781 44.7549 33.1023 48.5229 40.2867C56.4843 55.4694 63.8694 70.805 71.0287 86.1728C72.6957 89.7524 74.4331 93.3119 76.2057 96.8603C57.9328 73.0033 33.5563 51.3445 0 38.9456C11.4611 44.2235 18.9752 54.1534 26.7151 61.7563C36.0502 70.9267 45.8824 79.8506 55.2351 89.0109C66.2666 99.8172 79.2466 111.197 89.8573 123.155C100.135 142.687 110.123 162.24 116.288 182.772C113.762 175.678 116.09 165.875 115.657 158.43C115.314 152.504 114.549 146.627 113.501 140.76C114.797 143.406 115.914 146.054 116.42 148.517C115.958 144.386 115.426 140.282 114.854 136.198C116.322 132.375 117.763 128.807 118.736 125.869C123.726 110.793 129.667 95.978 137.757 81.5378C145.243 68.1801 153.831 54.9925 163.188 42.2073C167.553 36.2463 171.978 30.3074 176.375 24.3585C179.253 20.464 181.993 14.2283 186 10.4968C160.099 31.9322 131.8 53.5226 115.367 79.243Z" fill="white"/>
</g>
<defs>
<clipPath id="clip0_548_8890">
<rect width="186" height="196" fill="white"/>
</clipPath>
</defs>
</svg>
