<svg width="244" height="240" viewBox="0 0 244 240" fill="none" xmlns="http://www.w3.org/2000/svg">
<g clip-path="url(#clip0_548_8896)">
<path fill-rule="evenodd" clip-rule="evenodd" d="M214.148 123.473C211.172 113.529 204.183 105.745 196.928 98.6141C182.806 84.7308 175.21 76.1469 170.176 55.8384C167.216 43.8944 164.203 31.2374 154.814 22.572C147.978 16.2616 136.212 10.9597 127.07 15.4785C113.005 23.8866 109.228 41.1415 110.646 56.5923C112.404 75.7424 121.335 87.5504 138.493 94.6038C148.161 98.5764 154.588 103.818 159.836 112.952C164.033 120.255 166.481 129.401 171.756 136.021C179.643 145.919 189.512 150.318 201.677 148.674C190.283 127.678 176.97 106.483 160.913 88.805C159.41 87.0277 150.545 80.225 152.333 77.196C154.303 73.8609 163.403 86.3891 163.339 86.3134C168.005 91.6782 172.323 97.3791 176.563 103.135C176.553 103.14 176.54 103.143 176.528 103.149C180.894 109.055 185.225 115.048 189.473 121.117C191.191 123.683 192.863 126.283 194.464 128.948C196.813 132.858 200.542 143.956 204.386 146.361C205.209 146.875 205.969 147.162 206.68 147.281C209.303 151.582 211.855 155.918 214.282 160.305C220.621 171.763 226.062 183.861 228.559 196.797C229.287 200.573 228.772 214.696 231.345 217.422C236.05 222.408 234.671 212.807 234.39 209.909C232.053 185.912 223.452 165.468 210.963 145.294C214.8 140.276 215.354 127.502 214.148 123.473Z" fill="white"/>
<path fill-rule="evenodd" clip-rule="evenodd" d="M53.0107 135.067C57.9706 129.214 69.8939 128.221 77.1861 128.613C86.2094 129.097 95.4776 131.297 104.062 133.958C118.204 138.339 131.945 146.335 144.4 154.075C145.901 155.007 164.392 166.145 162.755 168.099C161.134 170.036 142.981 156.806 138.935 154.526C130.303 149.659 122.385 143.903 112.869 140.689C103.016 137.36 92.5953 136.042 82.234 136.133C80.9042 136.145 76.5667 135.216 76.4731 137.186C76.3815 139.114 83.5585 138.108 84.8243 138.12C90.0514 138.168 95.3109 138.66 100.464 139.568C110.119 141.267 119.195 144.692 127.464 149.944C125.157 155.317 119.626 157.794 113.824 156.45C108.809 155.287 103.921 152.421 99.0103 151.592C95.6284 151.021 92.2422 151.36 88.9628 152.315C80.3125 154.833 75.3235 159.991 65.8127 156.403C58.3567 153.59 45.8875 143.485 53.0107 135.067Z" fill="white"/>
<path fill-rule="evenodd" clip-rule="evenodd" d="M58.6203 79.6761H60.9668C60.8024 76.6935 60.5883 73.7159 60.0851 70.7667C58.1989 59.7123 52.3011 43.4761 39.3658 41.6818C38.8886 41.615 37.1332 41.6037 35.0069 41.7273C33.9991 41.1693 32.8702 40.8319 31.6808 40.7543C20.6677 39.9499 8.3687 48.7532 3.05637 57.9144C-1.22614 65.3008 -0.504692 75 2.14045 82.8472C3.91174 88.1009 7.77759 95.5913 14.2244 95.6643C22.2902 95.7557 22.6791 85.8783 22.8351 80.104C23.0424 72.4273 24.0215 65.7397 30.1266 60.507C31.5494 59.2881 33.1047 58.2156 34.542 57.0135C36.7925 55.1319 39.2796 53.2054 39.5695 50.0927C39.9698 45.7982 37.5232 45.0253 33.7877 45.8232C33.1509 45.959 26.7364 48.8109 27.6862 46.5567C27.9761 45.8681 29.0352 45.3224 30.3718 44.9136C33.8308 44.5409 37.9558 44.1086 39.1421 44.3669C51.9404 47.1489 56.9233 64.7142 58.2466 75.8744C58.3964 77.1381 58.5162 78.4061 58.6203 79.6761Z" fill="white"/>
</g>
<defs>
<clipPath id="clip0_548_8896">
<rect width="244" height="240" fill="white"/>
</clipPath>
</defs>
</svg>
