<svg width="108" height="40" viewBox="0 0 108 40" fill="none" xmlns="http://www.w3.org/2000/svg">
<g id="Logo">
<path id="Vector" d="M14.6623 27.3314C14.6623 25.6114 15.1623 24.0114 16.025 22.6634H8.33301C7.53736 22.6634 6.7743 22.9794 6.21169 23.542C5.64908 24.1046 5.33301 24.8677 5.33301 25.6633V26.89C5.33301 27.6527 5.57034 28.3967 6.01301 29.018C7.88367 31.642 10.8357 33.0634 14.7863 33.298L15.4823 31.014C14.9411 29.8619 14.661 28.6043 14.6623 27.3314ZM15.997 6.66602C17.7655 6.66602 19.4615 7.36853 20.712 8.61903C21.9625 9.86952 22.665 11.5656 22.665 13.334C22.665 15.1025 21.9625 16.7985 20.712 18.049C19.4615 19.2995 17.7655 20.002 15.997 20.002C14.2285 20.002 12.5325 19.2995 11.282 18.049C10.0315 16.7985 9.32901 15.1025 9.32901 13.334C9.32901 11.5656 10.0315 9.86952 11.282 8.61903C12.5325 7.36853 14.2285 6.66602 15.997 6.66602ZM30.6663 27.3314C30.6667 28.6082 30.3338 29.8631 29.7005 30.9718C29.0671 32.0805 28.1553 33.0047 27.0553 33.6529C25.9552 34.3011 24.7049 34.6509 23.4282 34.6677C22.1514 34.6845 20.8924 34.3677 19.7757 33.7487L16.8597 34.6353C16.7441 34.6706 16.6211 34.6737 16.5038 34.6444C16.3865 34.6151 16.2795 34.5545 16.194 34.469C16.1085 34.3836 16.0479 34.2765 16.0186 34.1592C15.9893 34.042 15.9925 33.919 16.0277 33.8034L16.9157 30.8874C16.3732 29.9081 16.0621 28.8177 16.0062 27.6997C15.9502 26.5817 16.1509 25.4657 16.5929 24.4372C17.0349 23.4087 17.7064 22.4951 18.5561 21.7662C19.4057 21.0373 20.4109 20.5126 21.4947 20.2323C22.5784 19.9519 23.712 19.9233 24.8085 20.1487C25.905 20.3741 26.9353 20.8475 27.8206 21.5326C28.7059 22.2177 29.4226 23.0963 29.9159 24.1012C30.4092 25.1061 30.6659 26.2106 30.6663 27.33V27.3314ZM20.6637 25.3313C20.4869 25.3313 20.3173 25.4016 20.1923 25.5266C20.0672 25.6516 19.997 25.8212 19.997 25.998C19.997 26.1748 20.0672 26.3444 20.1923 26.4694C20.3173 26.5944 20.4869 26.6647 20.6637 26.6647H25.9997C26.1765 26.6647 26.3461 26.5944 26.4711 26.4694C26.5961 26.3444 26.6663 26.1748 26.6663 25.998C26.6663 25.8212 26.5961 25.6516 26.4711 25.5266C26.3461 25.4016 26.1765 25.3313 25.9997 25.3313H20.6663H20.6637ZM19.997 28.6647C19.997 28.8415 20.0672 29.0111 20.1923 29.1361C20.3173 29.2611 20.4869 29.3314 20.6637 29.3314H23.3303C23.5072 29.3314 23.6767 29.2611 23.8017 29.1361C23.9268 29.0111 23.997 28.8415 23.997 28.6647C23.997 28.4879 23.9268 28.3183 23.8017 28.1933C23.6767 28.0683 23.5072 27.998 23.3303 27.998H20.6637C20.4869 27.998 20.3173 28.0683 20.1923 28.1933C20.0672 28.3183 19.997 28.4879 19.997 28.6647Z" fill="#FEB706"/>
<path id="Vector_2" d="M42.3363 9.67227C42.3363 9.16027 42.4216 8.68027 42.5923 8.23227C42.7736 7.78427 43.0243 7.39494 43.3443 7.06427C43.6643 6.7336 44.0536 6.47227 44.5123 6.28027C44.971 6.08827 45.483 5.99227 46.0483 5.99227C46.3256 5.99227 46.571 6.0136 46.7843 6.05627C47.0083 6.08827 47.195 6.13094 47.3443 6.18427C47.5256 6.2376 47.6803 6.3016 47.8083 6.37627L48.0323 5.99227C47.8616 5.9176 47.6803 5.84827 47.4883 5.78427C47.307 5.73094 47.099 5.68294 46.8643 5.64027C46.6296 5.5976 46.3576 5.57627 46.0483 5.57627C45.5043 5.57627 44.9816 5.67227 44.4803 5.86427C43.9896 6.05627 43.5523 6.3336 43.1683 6.69627C42.795 7.04827 42.491 7.48027 42.2563 7.99227C42.0323 8.4936 41.9203 9.0536 41.9203 9.67227C41.9203 10.3016 42.027 10.867 42.2403 11.3683C42.4643 11.8696 42.7683 12.3016 43.1523 12.6643C43.5363 13.0163 43.9843 13.2883 44.4963 13.4803C45.0083 13.6723 45.5523 13.7683 46.1283 13.7683C46.4483 13.7683 46.7363 13.7416 46.9923 13.6883C47.2483 13.635 47.467 13.5763 47.6483 13.5123C47.851 13.4376 48.0323 13.3523 48.1923 13.2563L47.9683 12.8723C47.8296 12.9683 47.6696 13.0483 47.4883 13.1123C47.3283 13.1763 47.1363 13.235 46.9123 13.2883C46.6883 13.331 46.427 13.3523 46.1283 13.3523C45.5416 13.3523 45.0136 13.2563 44.5443 13.0643C44.075 12.8723 43.675 12.611 43.3443 12.2803C43.0243 11.9496 42.7736 11.5603 42.5923 11.1123C42.4216 10.6643 42.3363 10.1843 42.3363 9.67227ZM40.3203 9.67227C40.3203 8.81894 40.4696 8.05094 40.7683 7.36827C41.067 6.67494 41.4723 6.08294 41.9843 5.59227C42.4963 5.1016 43.0936 4.72827 43.7763 4.47227C44.459 4.2056 45.1843 4.07227 45.9523 4.07227C46.5603 4.07227 47.099 4.13094 47.5683 4.24827C48.0483 4.3656 48.459 4.49894 48.8003 4.64827C49.195 4.81894 49.5363 5.0056 49.8243 5.20827L48.1443 8.16827C47.9736 8.04027 47.787 7.9176 47.5843 7.80027C47.403 7.71494 47.1843 7.63494 46.9283 7.56027C46.683 7.47494 46.4003 7.43227 46.0803 7.43227C45.7496 7.43227 45.4456 7.49094 45.1683 7.60827C44.891 7.7256 44.6456 7.8856 44.4323 8.08827C44.2296 8.29094 44.0696 8.53094 43.9523 8.80827C43.835 9.07493 43.7763 9.36294 43.7763 9.67227C43.7763 9.9816 43.835 10.275 43.9523 10.5523C44.0803 10.819 44.251 11.0536 44.4643 11.2563C44.6776 11.459 44.9283 11.619 45.2163 11.7363C45.5043 11.8536 45.819 11.9123 46.1603 11.9123C46.5016 11.9123 46.8056 11.8696 47.0723 11.7843C47.339 11.699 47.563 11.603 47.7443 11.4963C47.9576 11.379 48.1443 11.2403 48.3043 11.0803L49.9843 14.0403C49.6963 14.275 49.355 14.483 48.9603 14.6643C48.619 14.8136 48.2083 14.9523 47.7283 15.0803C47.2483 15.2083 46.699 15.2723 46.0803 15.2723C45.2483 15.2723 44.4803 15.139 43.7763 14.8723C43.0723 14.595 42.4643 14.211 41.9523 13.7203C41.4403 13.2296 41.0403 12.643 40.7523 11.9603C40.4643 11.267 40.3203 10.5043 40.3203 9.67227ZM50.3884 4.32827H53.7964V7.96027H55.7004V4.32827H59.1244V15.0003H55.7004V11.0483H53.7964V15.0003H50.3884V4.32827ZM52.4044 13.7203V9.67227H57.1084V13.7203H57.5244V5.60827H57.1084V9.28827H52.4044V5.60827H51.9884V13.7203H52.4044ZM63.4158 4.32827H65.9758L70.0238 15.0003H66.6638L66.3118 14.0403H63.0798L62.7278 15.0003H59.3678L63.4158 4.32827ZM65.4158 11.6883L64.6958 9.81627L63.9758 11.6883H65.4158ZM61.7518 13.7203L62.0558 12.9203H67.3358L67.6398 13.7203H68.0878L64.9998 5.60827H64.3918L61.3038 13.7203H61.7518ZM64.6958 5.99227L67.1918 12.5363H62.1998L64.6958 5.99227ZM71.6714 7.12827H69.7034V4.32827H77.1594V7.12827H75.1914V15.0003H71.6714V7.12827ZM73.6394 13.7203V5.99227H75.9274V5.60827H70.9354V5.99227H73.2234V13.7203H73.6394ZM79.1246 7.12827H77.1565V4.32827H84.6126V7.12827H82.6446V15.0003H79.1246V7.12827ZM81.0926 13.7203V5.99227H83.3806V5.60827H78.3886V5.99227H80.6766V13.7203H81.0926ZM85.1697 4.32827H91.4577V7.12827H88.5777V8.31227H91.4097V10.9683H88.5777V12.2003H91.5697V15.0003H85.1697V4.32827ZM90.3857 13.7203V13.3363H87.1857V9.83227H90.2257V9.44827H87.1857V5.99227H90.3857V5.60827H86.7697V13.7203H90.3857ZM95.8571 11.2883C96.2731 11.2883 96.6784 11.2456 97.0731 11.1603L98.5931 13.7203H99.0891L97.4891 11.0323C98.0651 10.8296 98.5237 10.5203 98.8651 10.1043C99.2064 9.6776 99.3771 9.12827 99.3771 8.45627C99.3771 7.98694 99.2864 7.57627 99.1051 7.22427C98.9237 6.87227 98.6731 6.57894 98.3531 6.34427C98.0437 6.09894 97.6757 5.9176 97.2491 5.80027C96.8224 5.67227 96.3584 5.60827 95.8571 5.60827H94.1291V13.7203H94.5451V11.2883H95.8571ZM94.5451 10.9043V5.99227H95.8571C96.8277 5.99227 97.5851 6.2056 98.1291 6.63227C98.6837 7.05894 98.9611 7.66694 98.9611 8.45627C98.9611 9.2456 98.6837 9.8536 98.1291 10.2803C97.5851 10.6963 96.8277 10.9043 95.8571 10.9043H94.5451ZM92.5291 4.32827H96.2091C96.8917 4.32827 97.5211 4.41894 98.0971 4.60027C98.6837 4.7816 99.1904 5.04827 99.6171 5.40027C100.043 5.75227 100.374 6.1896 100.609 6.71227C100.854 7.22427 100.977 7.81627 100.977 8.48827C100.977 9.0216 100.902 9.47494 100.753 9.84827C100.603 10.2216 100.438 10.531 100.257 10.7763C100.043 11.0536 99.8037 11.2883 99.5371 11.4803L101.537 15.0003H97.5371L95.9371 12.2963V15.0003H92.5291V4.32827ZM95.9371 9.57627H96.1131C96.5184 9.57627 96.8597 9.4856 97.1371 9.30427C97.4251 9.12294 97.5691 8.81894 97.5691 8.39227C97.5691 7.9656 97.4251 7.6616 97.1371 7.48027C96.8597 7.29894 96.5184 7.20827 96.1131 7.20827H95.9371V9.57627ZM40.5603 24.3283H46.8483V27.1283H43.9683V28.3123H46.8003V30.9683H43.9683V32.2003H46.9603V35.0003H40.5603V24.3283ZM45.7763 33.7203V33.3363H42.5763V29.8323H45.6163V29.4483H42.5763V25.9923H45.7763V25.6083H42.1603V33.7203H45.7763ZM51.0877 24.3283H53.6477L57.6957 35.0003H54.3357L53.9837 34.0403H50.7517L50.3997 35.0003H47.0397L51.0877 24.3283ZM53.0877 31.6883L52.3677 29.8163L51.6477 31.6883H53.0877ZM49.4237 33.7203L49.7277 32.9203H55.0077L55.3117 33.7203H55.7597L52.6717 25.6083H52.0637L48.9757 33.7203H49.4237ZM52.3677 25.9923L54.8637 32.5363H49.8717L52.3677 25.9923ZM58.9913 33.6083C59.1406 33.6403 59.3006 33.667 59.4713 33.6883C59.6206 33.7096 59.7753 33.731 59.9353 33.7523C60.106 33.763 60.2766 33.7683 60.4473 33.7683C60.746 33.7683 61.034 33.7363 61.3113 33.6723C61.5993 33.5976 61.8553 33.4803 62.0793 33.3203C62.3033 33.1603 62.4793 32.9576 62.6073 32.7123C62.746 32.4563 62.8153 32.147 62.8153 31.7843C62.8153 31.475 62.7353 31.1816 62.5753 30.9043C62.426 30.627 62.2286 30.3603 61.9833 30.1043C61.7486 29.8483 61.4926 29.603 61.2153 29.3683C60.9486 29.1336 60.6926 28.899 60.4473 28.6643C60.2126 28.419 60.0153 28.179 59.8553 27.9443C59.706 27.699 59.6313 27.4483 59.6313 27.1923C59.6313 26.8083 59.754 26.515 59.9993 26.3123C60.2446 26.099 60.6393 25.9923 61.1833 25.9923C61.2686 25.9923 61.354 25.9976 61.4393 26.0083C61.5353 26.0083 61.626 26.0136 61.7113 26.0243C61.7966 26.035 61.882 26.0403 61.9673 26.0403V25.6243C61.8926 25.6243 61.8126 25.619 61.7273 25.6083C61.6526 25.5976 61.5673 25.5923 61.4713 25.5923C61.386 25.5816 61.2953 25.5763 61.1993 25.5763C60.6233 25.5763 60.1486 25.7096 59.7753 25.9763C59.402 26.2323 59.2153 26.6376 59.2153 27.1923C59.2153 27.491 59.29 27.7736 59.4393 28.0403C59.5993 28.2963 59.7966 28.5523 60.0313 28.8083C60.2766 29.0536 60.5326 29.2936 60.7993 29.5283C61.0766 29.763 61.3326 30.003 61.5673 30.2483C61.8126 30.483 62.01 30.7283 62.1593 30.9843C62.3193 31.2403 62.3993 31.507 62.3993 31.7843C62.3993 32.2963 62.2233 32.6856 61.8713 32.9523C61.53 33.219 61.0553 33.3523 60.4473 33.3523C60.0846 33.3523 59.754 33.3256 59.4553 33.2723C59.2953 33.251 59.1406 33.2243 58.9913 33.1923V33.6083ZM57.6473 31.6883C57.882 31.763 58.1273 31.8216 58.3833 31.8643C58.5966 31.9176 58.8366 31.9603 59.1033 31.9923C59.3806 32.0243 59.658 32.0403 59.9353 32.0403C60.426 32.0403 60.6713 31.859 60.6713 31.4963C60.6713 31.3576 60.5966 31.219 60.4473 31.0803C60.298 30.931 60.106 30.771 59.8713 30.6003C59.6473 30.419 59.402 30.2216 59.1353 30.0083C58.8793 29.795 58.634 29.5496 58.3993 29.2723C58.1753 28.995 57.9886 28.6856 57.8393 28.3443C57.69 27.9923 57.6153 27.5923 57.6153 27.1443C57.6153 26.643 57.706 26.2003 57.8873 25.8163C58.0686 25.4323 58.3193 25.1123 58.6393 24.8563C58.9593 24.6003 59.3326 24.4083 59.7593 24.2803C60.1966 24.1416 60.6606 24.0723 61.1513 24.0723C61.4073 24.0723 61.6633 24.0883 61.9193 24.1203C62.1753 24.1416 62.4046 24.163 62.6073 24.1843C62.842 24.2163 63.0713 24.2483 63.2953 24.2803V27.2723C63.21 27.2616 63.114 27.251 63.0073 27.2403C62.922 27.2296 62.826 27.219 62.7193 27.2083C62.6126 27.1976 62.5006 27.1923 62.3833 27.1923C62.3193 27.1923 62.2393 27.1976 62.1433 27.2083C62.0473 27.2083 61.9566 27.219 61.8713 27.2403C61.786 27.2616 61.7113 27.299 61.6473 27.3523C61.5833 27.4056 61.5513 27.4803 61.5513 27.5763C61.5513 27.6616 61.6206 27.7683 61.7593 27.8963C61.9086 28.0243 62.0846 28.1736 62.2873 28.3443C62.5006 28.515 62.73 28.7123 62.9753 28.9363C63.2313 29.1603 63.4606 29.4163 63.6633 29.7043C63.8766 29.9923 64.0526 30.3176 64.1913 30.6803C64.3406 31.043 64.4153 31.4483 64.4153 31.8963C64.4153 32.3656 64.3406 32.8083 64.1913 33.2243C64.042 33.6296 63.8073 33.987 63.4873 34.2963C63.178 34.595 62.778 34.8296 62.2873 35.0003C61.7966 35.1816 61.2153 35.2723 60.5433 35.2723C60.138 35.2723 59.7593 35.251 59.4073 35.2083C59.066 35.1763 58.762 35.1336 58.4953 35.0803C58.186 35.027 57.9033 34.963 57.6473 34.8883V31.6883ZM65.1384 24.3283H71.4264V27.1283H68.5464V28.3123H71.3784V30.9683H68.5464V32.2003H71.5384V35.0003H65.1384V24.3283ZM70.3544 33.7203V33.3363H67.1544V29.8323H70.1944V29.4483H67.1544V25.9923H70.3544V25.6083H66.7384V33.7203H70.3544Z" fill="#FEB706"/>
</g>
</svg>
