<svg width="1248" height="380" viewBox="0 0 1248 380" fill="none" xmlns="http://www.w3.org/2000/svg">
<rect width="1248" height="380" fill="#FBCA5C"/>
<g clip-path="url(#clip0_570_7524)">
<path fill-rule="evenodd" clip-rule="evenodd" d="M1218.15 263.473C1215.17 253.529 1208.18 245.745 1200.93 238.614C1186.81 224.731 1179.21 216.147 1174.18 195.838C1171.22 183.894 1168.2 171.237 1158.81 162.572C1151.98 156.262 1140.21 150.96 1131.07 155.478C1117 163.887 1113.23 181.142 1114.65 196.592C1116.4 215.742 1125.34 227.55 1142.49 234.604C1152.16 238.576 1158.59 243.818 1163.84 252.952C1168.03 260.255 1170.48 269.401 1175.76 276.021C1183.64 285.919 1193.51 290.318 1205.68 288.674C1194.28 267.678 1180.97 246.483 1164.91 228.805C1163.41 227.028 1154.54 220.225 1156.33 217.196C1158.3 213.861 1167.4 226.389 1167.34 226.313C1172.01 231.678 1176.32 237.379 1180.56 243.135C1180.55 243.14 1180.54 243.143 1180.53 243.149C1184.89 249.055 1189.22 255.048 1193.47 261.117C1195.19 263.683 1196.86 266.283 1198.46 268.948C1200.81 272.858 1204.54 283.956 1208.39 286.361C1209.21 286.875 1209.97 287.162 1210.68 287.281C1213.3 291.582 1215.85 295.918 1218.28 300.305C1224.62 311.763 1230.06 323.861 1232.56 336.797C1233.29 340.573 1232.77 354.696 1235.34 357.422C1240.05 362.408 1238.67 352.807 1238.39 349.909C1236.05 325.912 1227.45 305.468 1214.96 285.294C1218.8 280.276 1219.35 267.502 1218.15 263.473Z" fill="white"/>
<path fill-rule="evenodd" clip-rule="evenodd" d="M1057.01 275.067C1061.97 269.214 1073.89 268.221 1081.19 268.613C1090.21 269.097 1099.48 271.297 1108.06 273.958C1122.2 278.339 1135.95 286.335 1148.4 294.075C1149.9 295.007 1168.39 306.145 1166.76 308.099C1165.13 310.036 1146.98 296.806 1142.94 294.526C1134.3 289.659 1126.39 283.903 1116.87 280.689C1107.02 277.36 1096.6 276.042 1086.23 276.133C1084.9 276.145 1080.57 275.216 1080.47 277.186C1080.38 279.114 1087.56 278.108 1088.82 278.12C1094.05 278.168 1099.31 278.66 1104.46 279.568C1114.12 281.267 1123.2 284.692 1131.46 289.944C1129.16 295.317 1123.63 297.794 1117.82 296.45C1112.81 295.287 1107.92 292.421 1103.01 291.592C1099.63 291.021 1096.24 291.36 1092.96 292.315C1084.31 294.833 1079.32 299.991 1069.81 296.403C1062.36 293.59 1049.89 283.485 1057.01 275.067Z" fill="white"/>
<path fill-rule="evenodd" clip-rule="evenodd" d="M1062.62 219.676H1064.97C1064.8 216.694 1064.59 213.716 1064.09 210.767C1062.2 199.712 1056.3 183.476 1043.37 181.682C1042.89 181.615 1041.13 181.604 1039.01 181.727C1038 181.169 1036.87 180.832 1035.68 180.754C1024.67 179.95 1012.37 188.753 1007.06 197.914C1002.77 205.301 1003.5 215 1006.14 222.847C1007.91 228.101 1011.78 235.591 1018.22 235.664C1026.29 235.756 1026.68 225.878 1026.84 220.104C1027.04 212.427 1028.02 205.74 1034.13 200.507C1035.55 199.288 1037.1 198.216 1038.54 197.013C1040.79 195.132 1043.28 193.205 1043.57 190.093C1043.97 185.798 1041.52 185.025 1037.79 185.823C1037.15 185.959 1030.74 188.811 1031.69 186.557C1031.98 185.868 1033.04 185.322 1034.37 184.914C1037.83 184.541 1041.96 184.109 1043.14 184.367C1055.94 187.149 1060.92 204.714 1062.25 215.874C1062.4 217.138 1062.52 218.406 1062.62 219.676Z" fill="white"/>
</g>
<g clip-path="url(#clip1_570_7524)">
<path fill-rule="evenodd" clip-rule="evenodd" d="M146.373 291.164C146.373 339.122 150.554 378 206.672 378C262.791 378 266.972 339.122 266.972 291.164" fill="white"/>
<path fill-rule="evenodd" clip-rule="evenodd" d="M223.367 261.243C221.31 264.462 219.476 267.746 217.856 271.079C217.799 264.215 218.218 257.3 219.363 250.291C221.32 238.284 224.31 226.34 227.119 214.415C229.138 205.845 229.01 190.452 236.673 183.623C238.774 182.147 239.28 185.043 239.28 186.299C239.306 186.565 239.274 181.17 237.234 182.11C225.112 187.777 221.184 205.597 217.303 214.519C211.641 227.541 206.823 240.854 204.839 254.403C204.338 257.825 204.065 261.247 204.002 264.663C203.59 263.749 203.203 262.829 202.775 261.918C195.778 247.064 186.336 232.571 174.56 219.204C171.661 215.915 135.214 183.463 132.36 188.43C132.642 189.152 133.231 189.75 134.13 190.226C134.183 190.28 134.184 190.25 134.154 190.17C136.294 193.3 142.38 198.134 144.276 200.876C149.047 207.778 152.755 215.102 156.523 222.287C164.484 237.469 171.869 252.805 179.029 268.173C180.696 271.752 182.433 275.312 184.206 278.86C165.933 255.003 141.556 233.344 108 220.946C119.461 226.223 126.975 236.153 134.715 243.756C144.05 252.927 153.882 261.851 163.235 271.011C174.267 281.817 187.247 293.197 197.857 305.155C208.135 324.687 218.123 344.24 224.288 364.772C221.762 357.678 224.09 347.875 223.657 340.43C223.314 334.504 222.549 328.627 221.501 322.76C222.797 325.406 223.914 328.054 224.42 330.517C223.958 326.386 223.426 322.282 222.854 318.198C224.322 314.375 225.763 310.807 226.736 307.869C231.726 292.793 237.667 277.978 245.757 263.538C253.243 250.18 261.831 236.992 271.188 224.207C275.553 218.246 279.978 212.307 284.375 206.358C287.253 202.464 289.993 196.228 294 192.497C268.099 213.932 239.8 235.523 223.367 261.243Z" fill="white"/>
</g>
<rect width="456.468" height="109" transform="translate(395.744 136)" fill="#FBCA5C"/>
<g clip-path="url(#clip2_570_7524)">
<path fill-rule="evenodd" clip-rule="evenodd" d="M440.724 213.054C436.898 208.568 434.307 203.069 434.74 196.908C435.987 179.155 460.728 183.06 465.541 192.02C470.354 200.98 469.782 223.708 463.562 225.31C461.081 225.948 455.797 224.384 450.419 221.146L453.795 245H433.863L440.724 213.054Z" fill="#B28B67"/>
<path fill-rule="evenodd" clip-rule="evenodd" d="M444.658 184.266C454.671 180.801 467.665 184.85 465.927 192.971C464.81 198.186 458.763 200.791 452.814 203.579C451.939 202.06 450.269 201.034 448.353 201.034C445.529 201.034 443.24 203.262 443.24 206.011C443.24 207.002 443.537 207.924 444.049 208.699C442.047 210.438 440.635 212.531 440.294 215.246C437.068 215.246 431.855 205.786 433.576 196.812C433.125 196.861 432.666 196.886 432.202 196.886C425.322 196.886 419.744 191.315 419.744 184.443C419.744 177.571 425.322 172 432.202 172C439.023 172 444.564 177.476 444.658 184.266Z" fill="#191847"/>
</g>
<g clip-path="url(#clip3_570_7524)">
<path fill-rule="evenodd" clip-rule="evenodd" d="M514.491 206.306C519.143 200.872 522.292 194.212 521.766 186.749C520.25 165.247 490.173 169.977 484.322 180.83C478.471 191.682 479.167 219.21 486.728 221.15C489.743 221.924 496.167 220.029 502.705 216.107L498.601 244.999H522.832L514.491 206.306Z" fill="#B28B67"/>
<path fill-rule="evenodd" clip-rule="evenodd" d="M495.009 182.404C498.297 184.235 500.637 187.665 503.454 192.164C504.14 191.896 504.887 191.748 505.669 191.748C509.015 191.748 511.727 194.447 511.727 197.777C511.727 199.467 511.028 200.995 509.902 202.089C511.303 204.058 512.874 206.115 514.674 208.237C521.392 204.227 526.388 192.537 519.974 181.253C514.456 158.649 483.186 172.679 477.17 168.867C475.855 177.069 480.097 183.683 495.009 182.404Z" fill="#191847"/>
</g>
<g clip-path="url(#clip4_570_7524)">
<path fill-rule="evenodd" clip-rule="evenodd" d="M553.562 211.682C549.582 207.002 546.889 201.267 547.339 194.841C548.635 176.326 574.363 180.399 579.368 189.744C584.373 199.089 583.778 222.793 577.31 224.463C574.73 225.129 569.236 223.497 563.643 220.121L567.153 244.999H546.426L553.562 211.682Z" fill="#B28B67"/>
<path fill-rule="evenodd" clip-rule="evenodd" d="M538.302 188.679C537.633 188.014 537.268 187.066 536.952 186.165C536.624 185.229 536.305 184.284 536.087 183.31C535.652 181.364 535.648 179.126 537.034 177.615C538.145 176.403 539.812 175.86 541.351 175.742C542.377 175.663 543.43 175.807 544.413 176.131C545.388 176.452 546.229 177.092 547.174 177.489C547.21 175.392 547.569 173.198 548.631 171.407C549.653 169.684 551.282 168.718 553.138 168.462C555.042 168.199 556.923 168.646 558.628 169.569C559.055 169.801 559.477 170.043 559.882 170.317C560.221 170.547 560.573 170.824 560.971 170.917C561.414 171.021 561.634 170.765 561.922 170.441C562.26 170.061 562.64 169.726 563.043 169.43C564.824 168.119 567.16 167.58 569.223 168.366C570.173 168.728 571.097 169.343 571.742 170.19C572.317 170.945 572.727 172.144 573.52 172.67C573.857 172.893 574.095 172.597 574.401 172.378C574.862 172.05 575.301 171.687 575.767 171.367C576.421 170.918 577.13 170.582 577.889 170.406C579 170.149 580.535 170.209 580.853 171.667C580.972 172.214 580.881 172.8 580.842 173.352C580.789 174.109 580.734 174.866 580.668 175.623C580.618 176.197 580.555 176.752 580.447 177.316C580.39 177.616 580.209 178.177 580.338 178.478C580.498 178.854 581.241 178.64 581.558 178.653C582.184 178.679 582.813 178.789 583.392 179.057C583.841 179.265 584.313 179.571 584.502 180.086C584.619 180.402 584.588 180.728 584.533 181.053C584.467 181.444 584.542 181.651 584.592 182.046C585.433 181.631 588.348 180.709 588.715 182.219C588.837 182.722 588.559 183.29 588.346 183.714C587.974 184.458 587.486 185.138 586.988 185.786C585.947 187.139 584.705 188.305 583.369 189.303C584.935 190 585.343 192.057 583.988 193.282C583.39 193.823 582.585 193.944 581.83 193.909C581.554 193.896 581.155 193.79 580.938 193.838C580.821 193.864 580.696 193.963 580.533 193.975C579.468 194.048 578.265 193.79 577.224 193.554C575.368 193.132 573.611 192.251 572.176 190.909C571.808 190.565 571.504 190.367 571.009 190.372C570.575 190.377 570.149 190.496 569.715 190.507C568.568 190.536 567.533 189.974 566.468 189.6C566.402 191.042 565.992 192.631 565.403 193.928C564.923 194.986 563.92 195.14 562.935 195.232C559.784 195.529 556.622 195.198 553.467 195.202C556.521 195.894 559.677 196.179 562.704 196.993C564.072 197.361 563.027 198.284 562.442 198.925C561.479 199.979 560.763 201.286 560.266 202.663C558.772 200.712 556.131 199.426 553.792 200.026C551.207 200.688 549.386 204.19 551.039 206.707C551.999 208.169 553.732 208.733 555.174 209.361C554.049 210.533 553.777 212.263 553.1 213.721C552.766 214.44 552.297 215.252 551.55 215.503C551.274 215.596 550.95 215.604 550.732 215.829C550.462 216.109 550.398 216.421 550.053 216.661C548.677 217.619 546.528 217.546 545.308 216.295C544.205 215.164 544.492 213.374 545.413 212.227C543.947 211.615 541.276 210.828 541.858 208.539C538.681 208.328 530.967 203.166 535.231 199.394C532.891 198.069 530.741 194.831 532.244 191.976C533.402 189.778 536.094 188.796 538.302 188.679Z" fill="#191847"/>
</g>
<g clip-path="url(#clip5_570_7524)">
<path fill-rule="evenodd" clip-rule="evenodd" d="M614.294 216.118C610.818 212.061 608.465 207.09 608.858 201.519C609.991 185.469 632.464 189 636.836 197.1C641.207 205.201 640.688 225.75 635.038 227.198C632.785 227.775 627.985 226.361 623.1 223.433L626.166 245H608.061L614.294 216.118Z" fill="#B28B67"/>
<path fill-rule="evenodd" clip-rule="evenodd" d="M629.684 188.277C627.21 187.527 623.618 187.273 622.108 187.445C622.967 185.398 623.308 183.117 623.03 180.897C622.76 178.739 621.79 176.902 620.893 174.977C620.48 174.089 620.011 173.207 619.313 172.528C618.601 171.836 617.7 171.38 616.756 171.162C615.789 170.939 614.778 170.958 613.81 171.16C613.382 171.249 612.998 171.444 612.578 171.552C612.147 171.663 611.939 171.396 611.627 171.127C610.874 170.478 609.771 170.159 608.819 170.044C607.751 169.916 606.643 170.076 605.625 170.425C604.633 170.765 603.681 171.316 602.964 172.12C602.645 172.478 602.355 172.885 602.167 173.335C602.09 173.519 602.077 173.629 601.892 173.696C601.721 173.759 601.52 173.761 601.344 173.82C599.634 174.396 598.173 175.709 597.377 177.395C596.913 178.378 596.693 180.11 596.753 182.051C596.813 183.992 598.576 189.056 600.225 190.903C601.697 192.552 603.86 193.64 605.947 194.116C604.562 195.691 603.639 197.659 602.957 199.66C602.216 201.834 601.758 204.092 601.588 206.394C601.428 208.58 601.413 210.893 601.928 213.033C602.411 215.034 603.442 216.675 605.164 217.717C605.953 218.194 606.802 218.552 607.655 218.88C608.496 219.203 609.34 219.516 610.221 219.698C611.889 220.04 613.81 219.981 615.095 218.662C615.558 218.186 616.067 217.588 616.405 217.007C616.526 216.798 616.6 216.661 616.452 216.457C616.275 216.212 615.989 216.025 615.762 215.833C614.467 214.742 613.666 213.285 613.464 211.554C613.259 209.797 613.733 207.529 615.451 206.763C617.572 205.816 619.907 206.903 621.792 207.915C622.593 205.104 624.238 202.574 626.817 201.284C629.67 199.858 632.944 199.691 635.875 198.467C636.639 198.148 637.418 197.786 637.98 197.136C638.215 196.865 638.491 196.512 638.585 196.153C638.708 195.681 638.402 195.286 638.166 194.918C636.912 192.968 632.158 189.027 629.684 188.277Z" fill="#191847"/>
</g>
<path fill-rule="evenodd" clip-rule="evenodd" d="M683.482 206.49C688.09 201.081 691.209 194.453 690.688 187.025C689.186 165.625 659.396 170.333 653.601 181.134C647.806 191.935 648.495 219.333 655.984 221.263C658.971 222.033 665.333 220.147 671.809 216.244L667.744 245H691.744L683.482 206.49Z" fill="#B28B67"/>
<path fill-rule="evenodd" clip-rule="evenodd" d="M670.609 189.389C669.691 202.186 667.26 208.584 663.319 208.584C657.406 208.584 652.389 204.831 649.795 204.831C647.904 204.831 648.326 207.197 649.58 208.952C650.614 210.4 655.651 211.795 655.651 214.04C655.651 216.284 651.671 214.548 651.671 215.879C651.671 218.081 650.972 222.221 654.793 222.221C658.661 222.221 669.75 220.811 671.65 215.071C672.877 211.367 673.67 203.69 674.029 192.042C674.264 192.014 674.502 192 674.745 192C678.058 192 680.745 194.686 680.745 198C680.745 199.682 680.052 201.202 678.937 202.292C680.325 204.251 681.881 206.299 683.664 208.411C690.362 204.392 695.332 192.629 688.784 181.328C686.974 175.792 682.877 172.835 678.037 171.462C674.117 169.822 670.048 169.637 666.613 170.62C659.879 171.198 653.866 173.251 652.161 174.471C652.161 180.846 653.397 182.737 663.948 182.571C666.54 183.94 668.533 186.298 670.609 189.389Z" fill="#191847"/>
<g clip-path="url(#clip6_570_7524)">
<path fill-rule="evenodd" clip-rule="evenodd" d="M726.485 223.891C735.679 223.891 739.023 212.906 744.246 206.878C747.983 202.565 754.361 203.851 756.249 197.813C760.996 182.63 748.29 171.943 731.714 171.943C715.138 171.943 703.962 181.316 701.548 195.405C699.135 209.494 709.909 223.891 726.485 223.891Z" fill="#191847"/>
<path fill-rule="evenodd" clip-rule="evenodd" d="M727.501 214.084C723.794 209.742 721.286 204.42 721.705 198.457C722.913 181.277 746.876 185.056 751.538 193.727C756.199 202.399 755.646 224.394 749.621 225.944C747.218 226.562 742.1 225.048 736.891 221.915L740.161 245H720.855L727.501 214.084Z" fill="#B28B67"/>
<path fill-rule="evenodd" clip-rule="evenodd" d="M735.64 203.032C734.938 202.662 734.135 202.451 733.28 202.451C730.545 202.451 728.328 204.608 728.328 207.268C728.328 208.354 728.697 209.356 729.32 210.162C728.147 212.092 727.346 214.12 727.084 216.205C723.016 216.205 708.172 200.846 722.96 186.395C737.748 171.944 759.118 192.573 752.696 193.777C749.004 194.468 741.568 197.986 735.64 203.032Z" fill="#191847"/>
</g>
<g clip-path="url(#clip7_570_7524)">
<path fill-rule="evenodd" clip-rule="evenodd" d="M771.74 188.578C768.427 200.785 764.11 228.224 768.515 232.528H796.385C796.388 232.479 796.391 232.429 796.394 232.38C806.724 231.237 814.758 222.479 814.758 211.844V191.662C814.758 180.251 805.507 171 794.095 171H792.173C781.81 171 773.229 178.629 771.74 188.578Z" fill="#191847"/>
<path fill-rule="evenodd" clip-rule="evenodd" d="M803.934 207.99C808.362 202.792 811.359 196.422 810.858 189.284C809.415 168.717 780.786 173.242 775.217 183.622C769.648 194.002 770.309 220.333 777.507 222.188C780.377 222.928 786.492 221.115 792.715 217.364L788.809 245H811.874L803.934 207.99Z" fill="#B28B67"/>
<path fill-rule="evenodd" clip-rule="evenodd" d="M797.699 204.516C796.636 215.931 797.062 228.967 800.229 232.062H828.099C829.652 205.082 814.645 215.53 814.645 190.127C813.709 189.213 812.825 188.308 811.95 187.528L811.981 186.781C807.155 176.901 801.032 171.961 793.613 171.961C782.484 171.961 778.972 177.139 775.981 181.536C778.217 189.21 786.896 190.348 794.608 195.131C795.518 194.393 796.677 193.95 797.939 193.95C800.858 193.95 803.225 196.316 803.225 199.236C803.225 202.155 800.858 204.521 797.939 204.521C797.859 204.521 797.779 204.52 797.699 204.516Z" fill="#191847"/>
</g>
<defs>
<clipPath id="clip0_570_7524">
<rect width="244" height="240" fill="white" transform="translate(1004 140)"/>
</clipPath>
<clipPath id="clip1_570_7524">
<rect width="186" height="196" fill="white" transform="translate(108 182)"/>
</clipPath>
<clipPath id="clip2_570_7524">
<rect width="49" height="73" fill="white" transform="translate(419.744 172)"/>
</clipPath>
<clipPath id="clip3_570_7524">
<rect width="47" height="77" fill="white" transform="matrix(-1 0 0 1 523.744 168)"/>
</clipPath>
<clipPath id="clip4_570_7524">
<rect width="57" height="77" fill="white" transform="translate(531.744 168)"/>
</clipPath>
<clipPath id="clip5_570_7524">
<rect width="43" height="75" fill="white" transform="translate(596.744 170)"/>
</clipPath>
<clipPath id="clip6_570_7524">
<rect width="57" height="73.0563" fill="white" transform="translate(700.744 171.943)"/>
</clipPath>
<clipPath id="clip7_570_7524">
<rect width="62.4675" height="74" fill="white" transform="matrix(-1 0 0 1 828.212 171)"/>
</clipPath>
</defs>
</svg>
