<svg width="1248" height="380" viewBox="0 0 1248 380" fill="none" xmlns="http://www.w3.org/2000/svg">
<rect width="1248" height="380" fill="#FBCA5C"/>
<g clip-path="url(#clip0_515_8378)">
<path fill-rule="evenodd" clip-rule="evenodd" d="M1158.63 283.827C1155.65 273.876 1148.64 266.087 1141.37 258.951C1127.22 245.058 1119.61 236.468 1114.56 216.145C1111.59 204.193 1108.57 191.527 1099.16 182.856C1092.31 176.541 1080.52 171.235 1071.36 175.757C1057.26 184.171 1053.47 201.438 1054.9 216.9C1056.66 236.063 1065.61 247.879 1082.81 254.938C1092.5 258.913 1098.94 264.158 1104.2 273.298C1108.4 280.607 1110.86 289.759 1116.14 296.384C1124.05 306.288 1133.94 310.691 1146.13 309.046C1134.71 288.034 1121.37 266.826 1105.28 249.135C1103.77 247.356 1094.88 240.549 1096.68 237.518C1098.65 234.18 1107.77 246.717 1107.71 246.641C1112.38 252.01 1116.71 257.715 1120.96 263.474C1120.95 263.48 1120.94 263.483 1120.93 263.489C1125.3 269.399 1129.64 275.396 1133.9 281.469C1135.62 284.037 1137.3 286.639 1138.9 289.305C1141.26 293.218 1145 304.324 1148.85 306.73C1149.67 307.245 1150.43 307.532 1151.15 307.651C1153.78 311.955 1156.33 316.294 1158.77 320.684C1165.12 332.15 1170.57 344.257 1173.08 357.202C1173.81 360.98 1173.29 375.114 1175.87 377.841C1180.58 382.83 1179.2 373.223 1178.92 370.323C1176.58 346.31 1167.96 325.851 1155.44 305.663C1159.29 300.641 1159.84 287.859 1158.63 283.827Z" fill="#F2F2F2"/>
<path fill-rule="evenodd" clip-rule="evenodd" d="M997.131 295.43C1002.1 289.573 1014.05 288.579 1021.36 288.971C1030.41 289.456 1039.69 291.658 1048.3 294.32C1062.47 298.704 1076.24 306.706 1088.73 314.451C1090.23 315.384 1108.76 326.529 1107.12 328.485C1105.5 330.423 1087.31 317.184 1083.25 314.902C1074.6 310.032 1066.66 304.272 1057.13 301.055C1047.25 297.724 1036.81 296.405 1026.42 296.496C1025.09 296.508 1020.74 295.579 1020.65 297.551C1020.55 299.479 1027.75 298.473 1029.02 298.485C1034.26 298.533 1039.53 299.026 1044.69 299.934C1054.37 301.635 1063.47 305.061 1071.75 310.317C1069.44 315.694 1063.9 318.173 1058.08 316.827C1053.06 315.664 1048.16 312.795 1043.24 311.966C1039.85 311.395 1036.45 311.735 1033.16 312.69C1024.49 315.209 1019.49 320.371 1009.96 316.78C1002.49 313.966 989.992 303.853 997.131 295.43Z" fill="#F2F2F2"/>
<path fill-rule="evenodd" clip-rule="evenodd" d="M1002.75 240H1005.11C1004.94 237.015 1004.73 234.036 1004.22 231.084C1002.33 220.022 996.42 203.775 983.456 201.979C982.977 201.912 981.218 201.901 979.087 202.025C978.077 201.467 976.945 201.129 975.753 201.051C964.715 200.246 952.388 209.056 947.064 218.223C942.772 225.615 943.495 235.321 946.146 243.173C947.921 248.431 951.796 255.926 958.257 255.999C966.341 256.091 966.731 246.207 966.887 240.428C967.095 232.746 968.076 226.054 974.195 220.818C975.621 219.598 977.18 218.525 978.621 217.322C980.876 215.439 983.369 213.511 983.66 210.396C984.061 206.099 981.609 205.325 977.865 206.124C977.227 206.26 970.798 209.113 971.749 206.858C972.04 206.169 973.102 205.623 974.441 205.213C977.908 204.84 982.042 204.408 983.231 204.666C996.059 207.45 1001.05 225.028 1002.38 236.196C1002.53 237.46 1002.65 238.729 1002.75 240Z" fill="#F2F2F2"/>
</g>
<g clip-path="url(#clip1_515_8378)">
<path fill-rule="evenodd" clip-rule="evenodd" d="M140.068 297.811C140.068 342.098 143.563 378 190.462 378C237.362 378 240.856 342.098 240.856 297.811" fill="#F2F2F2"/>
<path fill-rule="evenodd" clip-rule="evenodd" d="M204.415 270.178C202.696 273.151 201.163 276.184 199.809 279.262C199.761 272.923 200.112 266.537 201.069 260.064C202.705 248.977 205.203 237.947 207.551 226.934C209.238 219.02 209.131 204.806 215.535 198.499C217.291 197.136 217.713 199.81 217.713 200.97C217.735 201.216 217.709 196.234 216.004 197.102C205.873 202.335 202.591 218.791 199.347 227.03C194.615 239.056 190.589 251.35 188.931 263.862C188.512 267.022 188.284 270.182 188.231 273.336C187.887 272.493 187.563 271.643 187.206 270.802C181.358 257.085 173.467 243.701 163.626 231.357C161.203 228.32 130.743 198.351 128.359 202.938C128.594 203.604 129.086 204.157 129.838 204.597C129.882 204.647 129.883 204.619 129.857 204.544C131.646 207.435 136.732 211.899 138.317 214.432C142.304 220.805 145.403 227.569 148.552 234.204C155.205 248.224 161.377 262.386 167.36 276.578C168.754 279.884 170.206 283.171 171.687 286.448C156.416 264.416 136.044 244.415 108 232.965C117.578 237.839 123.858 247.009 130.326 254.03C138.128 262.499 146.345 270.74 154.161 279.199C163.381 289.178 174.228 299.687 183.096 310.73C191.685 328.767 200.032 346.824 205.185 365.785C203.073 359.234 205.019 350.181 204.658 343.305C204.371 337.833 203.731 332.405 202.855 326.988C203.938 329.431 204.872 331.877 205.295 334.151C204.909 330.336 204.464 326.546 203.986 322.775C205.213 319.244 206.417 315.95 207.231 313.236C211.401 299.314 216.366 285.633 223.127 272.298C229.383 259.962 236.56 247.784 244.38 235.977C248.028 230.472 251.726 224.988 255.4 219.494C257.806 215.898 260.096 210.139 263.445 206.693C241.798 226.488 218.148 246.426 204.415 270.178Z" fill="#F2F2F2"/>
</g>
<defs>
<clipPath id="clip0_515_8378">
<rect width="236" height="206" fill="white" transform="translate(944 174)"/>
</clipPath>
<clipPath id="clip1_515_8378">
<rect width="156" height="181" fill="white" transform="translate(108 197)"/>
</clipPath>
</defs>
</svg>
