<svg width="703" height="544" viewBox="0 0 703 544" fill="none" xmlns="http://www.w3.org/2000/svg">
<path fill-rule="evenodd" clip-rule="evenodd" d="M105.232 130.452C101.754 123.131 100.276 114.905 103.041 106.873C111.009 83.7317 142.422 97.7171 145.616 111.332C148.81 124.947 139.968 154.938 131.152 154.854C127.636 154.82 121.187 150.863 115.208 144.649L111.199 177.54L84.7723 170.453L105.232 130.452Z" fill="#D4A181"/>
<path fill-rule="evenodd" clip-rule="evenodd" d="M114.823 131.247C109.861 136.663 104.059 140.189 99.5309 138.975C90.9303 136.668 87.8962 123.52 91.2088 111.146C91.3252 110.711 91.4494 110.282 91.5812 109.858C80.8105 113.666 70.5015 124.103 58.4635 120.874C42.0859 116.482 44.433 81.6757 67.3148 87.8122C82.8762 91.9854 89.9228 96.309 95.6205 101.436C97.9044 98.1139 100.715 95.5594 103.718 94.0546C104.477 93.5536 105.541 93.1644 106.851 92.8907C107.66 92.6935 108.475 92.5747 109.289 92.5391C113.659 92.1427 119.698 92.656 126.195 94.1573C127.408 94.4376 128.592 94.7419 129.739 95.0662C131.383 89.0007 137.622 85.4055 143.691 87.0333C149.773 88.6642 153.382 94.9204 151.752 101.007C150.176 106.893 144.278 110.465 138.391 109.219C134.797 109.354 130.329 108.962 125.513 108.011C125.51 109.863 125.234 111.894 124.64 114.113C124.115 116.073 123.343 118.093 122.38 120.097C121.68 118.601 120.522 117.437 119.129 117.063C115.234 116.019 111.664 118.499 110.752 121.904C109.595 126.226 111.251 130.021 114.823 131.247Z" fill="#191847"/>
<path fill-rule="evenodd" clip-rule="evenodd" d="M51.0635 271.314L92.8214 415.332L112.462 523.463H132.176L112.497 271.314H51.0635Z" fill="#BA8B72"/>
<path fill-rule="evenodd" clip-rule="evenodd" d="M32.2977 271.314C35.2114 346.131 34.0623 386.938 33.4102 393.735C32.758 400.533 29.0559 446.057 3.82812 525.745H24.3319C57.7419 449.298 69.405 403.774 73.2369 393.735C77.0687 383.697 88.386 342.89 104.909 271.314H32.2977Z" fill="#D4A181"/>
<path fill-rule="evenodd" clip-rule="evenodd" d="M50.168 271.314C61.0299 320.871 79.8163 399.977 106.527 508.631H135.36C137.49 397.108 128.431 323.707 112.742 271.314H50.168Z" fill="#69A1AC"/>
<path fill-rule="evenodd" clip-rule="evenodd" d="M32.1519 271.314C35.0055 346.131 27.6102 419.84 4.70215 509.796H35.4656C68.937 434.49 92.9271 361.145 109.323 271.314H32.1519Z" fill="#89C5CC"/>
<path fill-rule="evenodd" clip-rule="evenodd" d="M0.905273 540.578L2.0366 522.323C8.66037 524.262 16.9568 523.501 26.9258 520.041C37.645 527.64 51.139 532.829 67.4078 535.608C68.649 535.82 69.4835 536.999 69.2717 538.241C69.258 538.322 69.24 538.402 69.2177 538.48L67.6537 544.001H26.9258H3.16793L0.905273 540.578Z" fill="#191847"/>
<path fill-rule="evenodd" clip-rule="evenodd" d="M108.062 540.578L109.193 522.323C115.817 524.262 124.113 523.501 134.082 520.041C144.801 527.64 158.295 532.829 174.564 535.608C175.805 535.82 176.64 536.999 176.428 538.241C176.414 538.322 176.396 538.402 176.374 538.48L174.81 544.001H134.082H110.324L108.062 540.578Z" fill="#191847"/>
<path fill-rule="evenodd" clip-rule="evenodd" d="M132.631 207.174L175.361 192.691C183.198 186.133 190.636 181.278 197.676 178.127C199.739 177.663 203.185 177.77 199.059 182.798C194.932 187.827 190.818 193.302 192.116 195.304C193.414 197.307 197.83 195.609 199.237 198.804C200.175 200.934 192.823 202.74 177.183 204.222L144.297 225.172L132.631 207.174ZM190.485 235.967L209.259 229.577C213.272 220.854 216.954 216.759 220.304 217.291C223.081 216.549 216.576 227.318 221.617 227.174C226.658 227.03 240.087 220.288 241.816 222.443C244.375 225.632 240.24 233.307 236.347 236.8C229.069 243.33 223.692 245.053 210.934 246.3C204.263 246.953 196.762 249.296 188.431 253.331L190.485 235.967Z" fill="#D4A181"/>
<path fill-rule="evenodd" clip-rule="evenodd" d="M114.492 199.069C128.166 201.333 146.875 201.66 168.468 192.75L173.096 211.118C157.356 222.06 136.595 229.668 120.207 226.298C107.293 223.643 103.428 206.76 114.492 199.069Z" fill="#E4A300"/>
<path fill-rule="evenodd" clip-rule="evenodd" d="M128.06 229.61C141.913 235.784 166.963 235.807 203.21 229.679C208.584 248.689 210.294 261.868 208.342 269.215C176.388 279.348 150.109 281.742 129.369 278.547C127.864 290.932 124.315 302.344 117.423 312.127C103.254 332.239 46.4907 301.28 25.4976 301.697C20.0679 258.156 47.591 245.709 52.2662 219.287C57.386 190.353 88.4492 149.908 91.865 150.511L123.015 156.008C120.84 178.411 125.2 204.295 128.06 229.61Z" fill="#FEB706"/>
<path fill-rule="evenodd" clip-rule="evenodd" d="M436.865 203.748C442.332 197.347 446.032 189.503 445.414 180.713C443.633 155.387 408.288 160.959 401.413 173.741C394.538 186.523 395.355 218.947 404.24 221.232C407.784 222.143 415.333 219.911 423.016 215.292L418.193 249.322H446.668L436.865 203.748Z" fill="#B28B67"/>
<path fill-rule="evenodd" clip-rule="evenodd" d="M457.829 172.284C458.749 171.375 459.251 170.077 459.685 168.845C460.135 167.565 460.573 166.272 460.872 164.94C461.47 162.278 461.476 159.217 459.572 157.15C458.046 155.493 455.755 154.749 453.64 154.588C452.232 154.48 450.785 154.677 449.435 155.12C448.095 155.559 446.94 156.434 445.642 156.978C445.592 154.109 445.099 151.108 443.64 148.658C442.237 146.302 439.998 144.979 437.449 144.63C434.833 144.271 432.249 144.881 429.907 146.145C429.32 146.461 428.739 146.793 428.183 147.168C427.718 147.482 427.234 147.86 426.688 147.988C426.079 148.131 425.777 147.78 425.381 147.337C424.917 146.817 424.394 146.36 423.841 145.954C421.395 144.16 418.186 143.423 415.352 144.498C414.046 144.993 412.776 145.835 411.89 146.994C411.101 148.027 410.537 149.666 409.448 150.386C408.985 150.691 408.659 150.286 408.237 149.987C407.605 149.538 407.002 149.041 406.362 148.604C405.462 147.99 404.489 147.53 403.446 147.289C401.92 146.937 399.811 147.02 399.375 149.014C399.211 149.763 399.336 150.564 399.389 151.318C399.462 152.354 399.538 153.39 399.628 154.425C399.696 155.21 399.783 155.969 399.932 156.74C400.011 157.152 400.259 157.918 400.082 158.33C399.861 158.845 398.842 158.552 398.406 158.57C397.546 158.606 396.682 158.756 395.886 159.123C395.27 159.407 394.621 159.825 394.361 160.53C394.201 160.963 394.243 161.408 394.319 161.853C394.409 162.388 394.306 162.671 394.238 163.211C393.083 162.643 389.078 161.382 388.574 163.448C388.406 164.136 388.788 164.913 389.08 165.493C389.591 166.51 390.261 167.44 390.946 168.327C392.376 170.177 394.082 171.773 395.917 173.138C393.767 174.091 393.205 176.905 395.067 178.581C395.89 179.321 396.995 179.485 398.032 179.438C398.412 179.421 398.959 179.275 399.258 179.341C399.418 179.377 399.59 179.512 399.813 179.528C401.277 179.628 402.929 179.276 404.36 178.952C406.909 178.375 409.323 177.17 411.294 175.335C411.799 174.864 412.217 174.593 412.898 174.6C413.494 174.606 414.079 174.769 414.675 174.784C416.251 174.825 417.673 174.056 419.137 173.544C419.226 175.517 419.789 177.689 420.598 179.464C421.258 180.911 422.636 181.121 423.989 181.248C428.318 181.655 432.662 181.201 436.997 181.207C432.801 182.153 428.465 182.543 424.307 183.656C422.427 184.159 423.863 185.423 424.666 186.299C425.99 187.741 426.974 189.529 427.656 191.412C429.709 188.743 433.336 186.985 436.551 187.805C440.102 188.71 442.602 193.501 440.332 196.944C439.013 198.944 436.632 199.715 434.651 200.574C436.197 202.177 436.571 204.544 437.501 206.538C437.959 207.521 438.603 208.633 439.629 208.976C440.009 209.102 440.454 209.113 440.754 209.422C441.124 209.804 441.213 210.231 441.687 210.56C443.577 211.871 446.53 211.77 448.205 210.059C449.72 208.512 449.326 206.064 448.061 204.495C450.075 203.658 453.745 202.58 452.944 199.45C457.309 199.161 467.907 192.1 462.048 186.94C465.264 185.128 468.217 180.699 466.152 176.794C464.562 173.788 460.864 172.444 457.829 172.284Z" fill="#191847"/>
<path fill-rule="evenodd" clip-rule="evenodd" d="M498.133 397.256H406.474L394.464 544.001H530.905L498.133 397.256Z" fill="#C5CFD6"/>
<path fill-rule="evenodd" clip-rule="evenodd" d="M498.133 397.256H469.943L453.07 544.001H530.905L498.133 397.256Z" fill="black" fill-opacity="0.1"/>
<path fill-rule="evenodd" clip-rule="evenodd" d="M301.977 372.114C292.204 366.261 275.809 373.781 275.82 382.152C275.853 407.199 298.77 525.244 299.966 532.706C301.162 540.168 313.98 542.14 314.726 532.731C315.914 517.76 318.12 465.933 315.913 441.944C315.001 432.042 314.02 422.612 313.054 414.198C325.079 435.859 343.676 466.871 368.845 507.235L382.509 501.009C371.779 465.747 362.981 440.853 356.114 426.327C344.357 401.455 333.332 380.156 328.692 372.653C321.394 360.852 308.69 364.969 301.977 372.114Z" fill="#B28B67"/>
<path fill-rule="evenodd" clip-rule="evenodd" d="M381.533 481.427L334.636 370.613C323.401 352.586 291.902 374.281 295.733 384.736C304.431 408.473 348.669 485.319 351.26 492.391L381.533 481.427Z" fill="#3F9589"/>
<path fill-rule="evenodd" clip-rule="evenodd" d="M384.137 494.021C387.058 496.419 388.959 498.379 389.838 499.898C390.908 501.746 392.16 504.621 393.595 508.522C391.446 509.76 372.129 520.885 335.643 541.896C331.263 537.797 330.58 534.616 333.596 532.351C336.611 530.087 339.1 528.177 341.061 526.622L361.064 499.132C361.449 498.603 362.191 498.486 362.721 498.87C362.73 498.876 362.739 498.883 362.748 498.89L366.904 502.082C370.717 501.75 373.562 501.044 375.44 499.962C376.966 499.083 378.717 497.255 380.694 494.478C381.453 493.412 382.934 493.161 384.003 493.918C384.049 493.951 384.094 493.985 384.137 494.021Z" fill="#E4E4E4"/>
<path fill-rule="evenodd" clip-rule="evenodd" d="M317.728 526.724C319.055 530.259 319.719 532.903 319.719 534.658C319.719 536.792 319.362 539.906 318.649 544C316.168 544 293.862 544 251.732 544C249.993 538.266 250.997 535.17 254.743 534.713C258.49 534.256 261.602 533.843 264.08 533.474L295.183 519.644C295.782 519.378 296.483 519.646 296.75 520.243C296.754 520.253 296.759 520.263 296.763 520.274L298.762 525.111C302.231 526.725 305.049 527.532 307.218 527.532C308.979 527.532 311.412 526.823 314.517 525.403C315.708 524.858 317.117 525.38 317.663 526.568C317.686 526.62 317.708 526.672 317.728 526.724Z" fill="#E4E4E4"/>
<path fill-rule="evenodd" clip-rule="evenodd" d="M272.533 390.667C272.533 422.107 287.502 495.445 287.512 502.367L319.719 502.392C315.004 436.954 313.333 403.882 314.704 403.177C316.76 402.12 399.002 411.367 423.667 411.367C459.235 411.367 473.949 388.995 475.143 347.551H404.684C390.338 349.082 315.508 364.137 287.718 369.312C275.82 371.528 272.533 382.006 272.533 390.667Z" fill="#449F93"/>
<path fill-rule="evenodd" clip-rule="evenodd" d="M393.709 273.82L352.528 251.322C345.68 243.211 338.932 236.911 332.286 232.423C330.255 231.577 326.703 231.065 330.025 236.946C333.346 242.826 336.575 249.16 334.882 250.972C333.19 252.783 328.971 250.253 326.952 253.263C325.606 255.269 332.815 258.439 348.578 262.773L378.501 290.101L393.709 273.82ZM329.212 292.802L311.123 282.89C308.584 273.256 305.55 268.409 302.02 268.349C299.309 267.09 304.031 279.263 298.89 278.208C293.75 277.152 281.203 267.844 279.041 269.734C275.843 272.53 278.695 281.115 282.055 285.385C288.335 293.367 293.535 296.097 306.386 299.671C313.106 301.54 320.371 305.286 328.182 310.909L329.212 292.802Z" fill="#997659"/>
<path fill-rule="evenodd" clip-rule="evenodd" d="M413.764 268.808C399.34 268.656 380.105 265.618 359.582 252.623L351.522 270.552C365.678 284.566 385.584 296.08 402.989 295.592C416.705 295.208 423.716 278.659 413.764 268.808Z" fill="#FCFCED"/>
<path fill-rule="evenodd" clip-rule="evenodd" d="M394.342 297.561C379.029 301.37 353.349 296.878 317.304 284.084C308.363 302.534 304.23 315.687 304.905 323.544C335.826 339.655 362.329 346.838 384.163 347.313C383.469 360.235 385.046 372.532 390.344 383.768C401.235 406.866 465.005 385.474 486.447 389.685C499.875 346.188 473.912 328.511 473.891 300.68C473.868 270.201 449.333 223.287 445.723 223.287H412.803C410.987 246.564 401.845 272.217 394.342 297.561Z" fill="#FFFFF3"/>
<g clip-path="url(#clip0_1048_4454)">
<path d="M549.787 34.2357L574.947 9.02992C579.179 4.79074 586.043 4.78932 590.277 9.02676L590.28 9.02992L657.263 76.1243C661.327 80.1946 663.61 85.7142 663.61 91.4694V535.861" stroke="#CBCBCB" stroke-width="8"/>
<path d="M698.84 534.504H627.023C624.778 534.504 622.958 536.326 622.958 538.574V539.93C622.958 542.178 624.778 544 627.023 544H698.84C701.085 544 702.905 542.178 702.905 539.93V538.574C702.905 536.326 701.085 534.504 698.84 534.504Z" fill="#AFB9C5"/>
<path fill-rule="evenodd" clip-rule="evenodd" d="M564.92 19.4468C582.382 36.9299 582.382 65.2754 564.92 82.7585L538.092 109.618L474.854 46.3063L501.682 19.4468C519.144 1.96381 547.457 1.96381 564.92 19.4468Z" fill="#C5CFD6"/>
<path d="M501.315 83.4681C518.778 100.951 535.723 112.332 539.162 108.889C542.602 105.445 531.234 88.4806 513.771 70.9976C496.309 53.5146 479.364 42.1334 475.924 45.577C472.485 49.0207 483.853 65.9851 501.315 83.4681Z" fill="#F2F2F2"/>
</g>
<defs>
<clipPath id="clip0_1048_4454">
<rect width="229" height="544" fill="white" transform="translate(473.905)"/>
</clipPath>
</defs>
</svg>
