<svg width="458" height="109" viewBox="0 0 458 109" fill="none" xmlns="http://www.w3.org/2000/svg">
<rect width="456.468" height="109" transform="translate(0.744385)" fill="#FBCA5C"/>
<g clip-path="url(#clip0_548_8926)">
<path fill-rule="evenodd" clip-rule="evenodd" d="M45.7244 77.0545C41.8975 72.5677 39.3074 67.069 39.7402 60.9077C40.9873 43.155 65.7283 47.0604 70.5409 56.0204C75.3536 64.9804 74.7817 87.7082 68.5618 89.3096C66.0813 89.9483 60.7971 88.3839 55.419 85.146L58.7948 109H38.8625L45.7244 77.0545Z" fill="#B28B67"/>
<path fill-rule="evenodd" clip-rule="evenodd" d="M49.6584 48.2661C59.6715 44.8013 72.6655 48.8502 70.9266 56.9715C69.81 62.1864 63.7633 64.7911 57.8145 67.5787C56.9389 66.0602 55.2688 65.0341 53.3526 65.0341C50.5287 65.0341 48.2395 67.2625 48.2395 70.0114C48.2395 71.0015 48.5365 71.9241 49.0486 72.6994C47.0474 74.4382 45.6353 76.5312 45.2939 79.2457C42.0684 79.2457 36.8551 69.7862 38.5762 60.8115C38.1249 60.861 37.6664 60.8864 37.202 60.8864C30.3219 60.8864 24.7444 55.3154 24.7444 48.4432C24.7444 41.571 30.3219 36 37.202 36C44.023 36 49.5636 41.4756 49.6584 48.2661Z" fill="#191847"/>
</g>
<g clip-path="url(#clip1_548_8926)">
<path fill-rule="evenodd" clip-rule="evenodd" d="M119.491 70.3064C124.143 64.872 127.292 58.212 126.766 50.7492C125.25 29.247 95.1726 33.9772 89.322 44.8297C83.4715 55.6822 84.1667 83.2104 91.728 85.15C94.7435 85.9235 101.167 84.0287 107.705 80.107L103.601 108.999H127.832L119.491 70.3064Z" fill="#B28B67"/>
<path fill-rule="evenodd" clip-rule="evenodd" d="M100.009 46.4044C103.297 48.2349 105.637 51.6649 108.454 56.164C109.14 55.8956 109.887 55.7482 110.669 55.7482C114.015 55.7482 116.727 58.4473 116.727 61.7768C116.727 63.467 116.028 64.9947 114.902 66.0894C116.303 68.0583 117.874 70.1151 119.674 72.2375C126.392 68.2267 131.388 56.5374 124.974 45.2528C119.456 22.6491 88.1863 36.679 82.1703 32.8668C80.8553 41.0693 85.0968 47.6831 100.009 46.4044Z" fill="#191847"/>
</g>
<g clip-path="url(#clip2_548_8926)">
<path fill-rule="evenodd" clip-rule="evenodd" d="M158.562 75.6816C154.582 71.0021 151.889 65.2673 152.339 58.8413C153.635 40.3263 179.363 44.3994 184.368 53.7442C189.373 63.089 188.778 86.7928 182.31 88.463C179.73 89.1291 174.236 87.4975 168.643 84.1206L172.153 108.999H151.426L158.562 75.6816Z" fill="#B28B67"/>
<path fill-rule="evenodd" clip-rule="evenodd" d="M143.302 52.679C142.633 52.0144 142.268 51.0658 141.952 50.165C141.624 49.2293 141.305 48.284 141.087 47.31C140.652 45.3641 140.648 43.1262 142.034 41.6152C143.145 40.4035 144.812 39.86 146.351 39.7419C147.377 39.6631 148.43 39.8069 149.413 40.1306C150.388 40.4518 151.229 41.0917 152.174 41.489C152.21 39.3919 152.569 37.1977 153.631 35.4071C154.653 33.6843 156.282 32.7175 158.138 32.4617C160.042 32.1992 161.923 32.6457 163.628 33.5694C164.055 33.8007 164.477 34.043 164.882 34.3173C165.221 34.547 165.573 34.8236 165.971 34.917C166.414 35.0212 166.634 34.7648 166.922 34.4408C167.26 34.061 167.64 33.7265 168.043 33.4299C169.824 32.1188 172.16 31.5797 174.223 32.3656C175.173 32.7277 176.097 33.3426 176.742 34.19C177.317 34.9453 177.727 36.1435 178.52 36.6698C178.857 36.8932 179.095 36.5972 179.401 36.3784C179.862 36.0498 180.301 35.6871 180.767 35.3673C181.421 34.9181 182.13 34.5821 182.889 34.4062C184 34.1487 185.535 34.2091 185.853 35.6667C185.972 36.2143 185.881 36.7999 185.842 37.3515C185.789 38.109 185.734 38.8662 185.668 39.6226C185.618 40.1969 185.555 40.7516 185.447 41.3156C185.39 41.6162 185.209 42.1766 185.338 42.4777C185.498 42.854 186.241 42.6401 186.558 42.6531C187.184 42.6791 187.813 42.7891 188.392 43.0572C188.841 43.265 189.313 43.5706 189.502 44.0859C189.619 44.4025 189.588 44.7276 189.533 45.0533C189.467 45.4442 189.542 45.6515 189.592 46.0458C190.433 45.6309 193.348 44.709 193.715 46.2191C193.837 46.722 193.559 47.2902 193.346 47.7142C192.974 48.458 192.486 49.1379 191.988 49.7862C190.947 51.1388 189.705 52.3054 188.369 53.3031C189.935 54.0003 190.343 56.0569 188.988 57.2822C188.39 57.8232 187.585 57.9436 186.83 57.909C186.554 57.8963 186.155 57.7899 185.938 57.8382C185.821 57.8641 185.696 57.9634 185.533 57.9745C184.468 58.0476 183.265 57.7905 182.224 57.5536C180.368 57.1316 178.611 56.2508 177.176 54.9094C176.808 54.5653 176.504 54.3672 176.009 54.3723C175.575 54.3767 175.149 54.4959 174.715 54.5069C173.568 54.5363 172.533 53.9743 171.468 53.6002C171.402 55.0423 170.992 56.6306 170.403 57.9279C169.923 58.9859 168.92 59.1396 167.935 59.2325C164.784 59.5295 161.622 59.198 158.467 59.2024C161.521 59.894 164.677 60.179 167.704 60.9928C169.072 61.3606 168.027 62.2844 167.442 62.9248C166.479 63.9794 165.763 65.2861 165.266 66.6626C163.772 64.7117 161.131 63.4262 158.792 64.0256C156.207 64.6877 154.386 68.1897 156.039 70.7074C156.999 72.1689 158.732 72.7331 160.174 73.3611C159.049 74.5327 158.777 76.2632 158.1 77.7209C157.766 78.4397 157.297 79.2525 156.55 79.503C156.274 79.5957 155.95 79.6036 155.732 79.8293C155.462 80.1086 155.398 80.421 155.053 80.6611C153.677 81.6194 151.528 81.5456 150.308 80.2949C149.205 79.1639 149.492 77.3741 150.413 76.2274C148.947 75.6151 146.276 74.8277 146.858 72.5393C143.681 72.3279 135.967 67.1658 140.231 63.3937C137.891 62.0687 135.741 58.8306 137.244 55.9761C138.402 53.7781 141.094 52.7956 143.302 52.679Z" fill="#191847"/>
</g>
<g clip-path="url(#clip3_548_8926)">
<path fill-rule="evenodd" clip-rule="evenodd" d="M219.294 80.1176C215.818 76.061 213.465 71.0897 213.858 65.5191C214.991 49.4687 237.464 52.9996 241.836 61.1004C246.207 69.2013 245.688 89.7497 240.038 91.1976C237.785 91.775 232.985 90.3606 228.1 87.4332L231.166 109H213.061L219.294 80.1176Z" fill="#B28B67"/>
<path fill-rule="evenodd" clip-rule="evenodd" d="M234.684 52.2775C232.21 51.5275 228.618 51.2731 227.108 51.4452C227.967 49.3981 228.308 47.1175 228.03 44.8968C227.76 42.739 226.79 40.9018 225.893 38.9765C225.48 38.0891 225.011 37.2066 224.313 36.5278C223.601 35.8363 222.7 35.3798 221.756 35.162C220.789 34.9391 219.778 34.9577 218.81 35.16C218.382 35.2494 217.998 35.4441 217.578 35.5523C217.147 35.6632 216.939 35.3956 216.627 35.1266C215.874 34.4785 214.771 34.1585 213.819 34.044C212.751 33.9156 211.643 34.0758 210.625 34.4248C209.633 34.7646 208.681 35.3163 207.964 36.1201C207.645 36.4779 207.355 36.8852 207.167 37.3348C207.09 37.5193 207.077 37.6286 206.892 37.6962C206.721 37.7588 206.52 37.7606 206.344 37.8201C204.634 38.3957 203.173 39.7087 202.377 41.3946C201.913 42.3782 201.693 44.1098 201.753 46.0508C201.813 47.9917 203.576 53.0561 205.225 54.9033C206.697 56.5521 208.86 57.6402 210.947 58.1165C209.562 59.6911 208.639 61.6588 207.957 63.66C207.216 65.8338 206.758 68.0925 206.588 70.3938C206.428 72.5804 206.413 74.8926 206.928 77.0325C207.411 79.0336 208.442 80.6753 210.164 81.7167C210.953 82.1938 211.802 82.5522 212.655 82.8798C213.496 83.2026 214.34 83.5164 215.221 83.6975C216.889 84.0402 218.81 83.9814 220.095 82.6617C220.558 82.1859 221.067 81.5881 221.405 81.0069C221.526 80.7979 221.6 80.6612 221.452 80.4569C221.275 80.2123 220.989 80.0248 220.762 79.8334C219.467 78.742 218.666 77.2851 218.464 75.5537C218.259 73.797 218.733 71.5295 220.451 70.7628C222.572 69.8164 224.907 70.9027 226.792 71.9153C227.593 69.1045 229.238 66.5736 231.817 65.2843C234.67 63.8579 237.944 63.691 240.875 62.4671C241.639 62.1482 242.418 61.7861 242.98 61.1363C243.215 60.8648 243.491 60.5125 243.585 60.1533C243.708 59.6815 243.402 59.2859 243.166 58.9181C241.912 56.9677 237.158 53.0275 234.684 52.2775Z" fill="#191847"/>
</g>
<path fill-rule="evenodd" clip-rule="evenodd" d="M288.482 70.4901C293.09 65.0814 296.209 58.4529 295.688 51.0255C294.186 29.625 264.396 34.3328 258.601 45.1339C252.806 55.9351 253.495 83.333 260.984 85.2635C263.971 86.0333 270.333 84.1475 276.809 80.2443L272.744 109H296.744L288.482 70.4901Z" fill="#B28B67"/>
<path fill-rule="evenodd" clip-rule="evenodd" d="M275.609 53.3886C274.691 66.1857 272.26 72.5843 268.319 72.5843C262.406 72.5843 257.389 68.8307 254.795 68.8307C252.904 68.8307 253.326 71.1974 254.58 72.9521C255.614 74.3998 260.651 75.7953 260.651 78.0397C260.651 80.2841 256.671 78.5477 256.671 79.8789C256.671 82.0807 255.972 86.2206 259.793 86.2206C263.661 86.2206 274.75 84.8112 276.65 79.0711C277.877 75.3666 278.67 67.6902 279.029 56.0419C279.264 56.014 279.502 55.9996 279.745 55.9996C283.058 55.9996 285.745 58.6859 285.745 61.9996C285.745 63.6819 285.052 65.2024 283.937 66.2919C285.325 68.2515 286.881 70.2985 288.664 72.4108C295.362 68.3923 300.332 56.6286 293.784 45.3279C291.974 39.7919 287.877 36.8349 283.037 35.4618C279.117 33.8221 275.048 33.6372 271.613 34.6202C264.879 35.1978 258.866 37.2512 257.161 38.4706C257.161 44.8458 258.397 46.7373 268.948 46.5706C271.54 47.9398 273.533 50.2975 275.609 53.3886Z" fill="#191847"/>
<g clip-path="url(#clip4_548_8926)">
<path fill-rule="evenodd" clip-rule="evenodd" d="M331.485 87.8911C340.679 87.8911 344.023 76.9064 349.246 70.8782C352.983 66.5652 359.361 67.8513 361.249 61.8132C365.996 46.6298 353.29 35.9434 336.714 35.9434C320.138 35.9434 308.962 45.3156 306.548 59.4047C304.135 73.4938 314.909 87.8911 331.485 87.8911Z" fill="#191847"/>
<path fill-rule="evenodd" clip-rule="evenodd" d="M332.501 78.0838C328.794 73.7416 326.286 68.4201 326.705 62.4572C327.913 45.2766 351.876 49.0561 356.538 57.7274C361.199 66.3987 360.646 88.3943 354.621 89.9441C352.218 90.5621 347.1 89.0481 341.891 85.9146L345.161 109H325.855L332.501 78.0838Z" fill="#B28B67"/>
<path fill-rule="evenodd" clip-rule="evenodd" d="M340.64 67.0321C339.938 66.6617 339.135 66.4514 338.28 66.4514C335.545 66.4514 333.328 68.608 333.328 71.2683C333.328 72.3541 333.697 73.356 334.32 74.1616C333.147 76.0919 332.346 78.1201 332.084 80.2051C328.016 80.2051 313.172 64.8458 327.96 50.3951C342.748 35.9443 364.118 56.5735 357.696 57.7766C354.004 58.4683 346.568 61.986 340.64 67.0321Z" fill="#191847"/>
</g>
<g clip-path="url(#clip5_548_8926)">
<path fill-rule="evenodd" clip-rule="evenodd" d="M376.74 52.5776C373.427 64.7848 369.11 92.2239 373.515 96.5281H401.385C401.388 96.4786 401.391 96.4293 401.394 96.3801C411.724 95.237 419.758 86.4788 419.758 75.8442V55.6623C419.758 44.2508 410.507 35 399.095 35H397.173C386.81 35 378.229 42.6292 376.74 52.5776Z" fill="#191847"/>
<path fill-rule="evenodd" clip-rule="evenodd" d="M408.934 71.9901C413.362 66.7921 416.359 60.4218 415.858 53.2838C414.415 32.7171 385.786 37.2415 380.217 47.6218C374.648 58.0021 375.309 84.3326 382.507 86.1879C385.377 86.9277 391.492 85.1153 397.715 81.3643L393.809 109H416.874L408.934 71.9901Z" fill="#B28B67"/>
<path fill-rule="evenodd" clip-rule="evenodd" d="M402.699 68.516C401.636 79.9312 402.062 92.9671 405.229 96.0616H433.099C434.652 69.0817 419.645 79.5295 419.645 54.1273C418.709 53.2131 417.825 52.3082 416.95 51.5279L416.981 50.7808C412.155 40.9009 406.032 35.9609 398.613 35.9609C387.484 35.9609 383.972 41.1393 380.981 45.5359C383.217 53.2098 391.896 54.3477 399.608 59.1311C400.518 58.3926 401.677 57.9499 402.939 57.9499C405.858 57.9499 408.225 60.3164 408.225 63.2356C408.225 66.1548 405.858 68.5213 402.939 68.5213C402.859 68.5213 402.779 68.5195 402.699 68.516Z" fill="#191847"/>
</g>
<defs>
<clipPath id="clip0_548_8926">
<rect width="49" height="73" fill="white" transform="translate(24.7444 36)"/>
</clipPath>
<clipPath id="clip1_548_8926">
<rect width="47" height="77" fill="white" transform="matrix(-1 0 0 1 128.744 32)"/>
</clipPath>
<clipPath id="clip2_548_8926">
<rect width="57" height="77" fill="white" transform="translate(136.744 32)"/>
</clipPath>
<clipPath id="clip3_548_8926">
<rect width="43" height="75" fill="white" transform="translate(201.744 34)"/>
</clipPath>
<clipPath id="clip4_548_8926">
<rect width="57" height="73.0563" fill="white" transform="translate(305.744 35.9434)"/>
</clipPath>
<clipPath id="clip5_548_8926">
<rect width="62.4675" height="74" fill="white" transform="matrix(-1 0 0 1 433.212 35)"/>
</clipPath>
</defs>
</svg>
