<svg width="294" height="335" viewBox="0 0 294 335" fill="none" xmlns="http://www.w3.org/2000/svg">
<path fill-rule="evenodd" clip-rule="evenodd" d="M202.738 41.4901C207.346 36.0814 210.464 29.4529 209.943 22.0255C208.442 0.624976 178.651 5.33281 172.857 16.1339C167.062 26.9351 167.75 54.333 175.24 56.2635C178.226 57.0333 184.589 55.1475 191.065 51.2443L187 80H211L202.738 41.4901Z" fill="#915B3C"/>
<path fill-rule="evenodd" clip-rule="evenodd" d="M204.582 46.3075C207.594 32.9065 216.175 23.7714 214.865 17.7817C213.991 13.7886 211.662 11.3054 207.879 10.3321C205.922 2.4155 199.61 -0.951752 188.944 0.230376C172.945 2.00357 163.181 8.64776 167.397 23.2679C171.274 23.2679 175.954 21.866 182.424 24.2679C184.478 25.03 185.946 27.3934 186.83 31.358H189.754C192.592 26.6531 195.391 24.9241 198.149 26.1712C200.908 27.4183 201.535 30.4474 200.03 35.2586L201.471 46.3075H204.582Z" fill="#191847"/>
<path fill-rule="evenodd" clip-rule="evenodd" d="M278 205H163C154.163 205 147 212.163 147 221V313C147 321.837 154.163 329 163 329H278C286.837 329 294 321.837 294 313V221C294 212.163 286.837 205 278 205ZM262 233C264.209 233 266 234.791 266 237V297C266 299.209 264.209 301 262 301H179C176.791 301 175 299.209 175 297V237C175 234.791 176.791 233 179 233H262Z" fill="#C5CFD6"/>
<path fill-rule="evenodd" clip-rule="evenodd" d="M47.841 324C67.5569 299.924 80.8971 282.075 87.8617 270.454C99.7868 250.555 109.547 232.848 112.627 226.084C119.972 209.955 95.7181 202.403 90.229 209.926C81.9209 221.312 64.1779 257.143 37 317.417L47.841 324Z" fill="#B28B67"/>
<path fill-rule="evenodd" clip-rule="evenodd" d="M88.2424 317L124.935 224.637C132.783 207.8 94.8842 196.732 89.1167 204.568C76.0227 222.357 44.9011 292.534 41 297.834L88.2424 317Z" fill="#2F3676"/>
<path fill-rule="evenodd" clip-rule="evenodd" d="M185.967 298.477C178.819 288.051 152.821 252.974 138.661 238.461C134.592 234.291 130.621 230.288 126.866 226.557C115.704 215.47 93.476 234.106 104.618 244.205C132.364 269.355 172.849 303.307 176.231 306.334C180.972 310.577 190.459 305.029 185.967 298.477Z" fill="#915B3C"/>
<path fill-rule="evenodd" clip-rule="evenodd" d="M184.297 293.768C186.759 295.795 188.36 297.45 189.102 298.734C190.003 300.296 191.059 302.725 192.268 306.022C190.457 307.067 174.175 316.468 143.423 334.222C139.731 330.759 139.156 328.07 141.697 326.157C144.239 324.243 146.336 322.63 147.989 321.316L164.849 298.087C165.173 297.64 165.799 297.541 166.246 297.865C166.253 297.871 166.261 297.876 166.268 297.882L169.771 300.58C172.985 300.299 175.383 299.702 176.966 298.788C178.252 298.046 179.728 296.501 181.395 294.154C182.034 293.253 183.282 293.041 184.183 293.681C184.222 293.708 184.26 293.737 184.297 293.768Z" fill="#E4E4E4"/>
<path fill-rule="evenodd" clip-rule="evenodd" d="M56.3219 320.402C57.4406 323.388 58 325.623 58 327.106C58 328.909 57.6996 331.54 57.0988 335C55.0068 335 36.2062 335 0.696926 335C-0.768761 330.155 0.0773163 327.539 3.23516 327.152C6.39299 326.766 9.01627 326.417 11.105 326.106L37.32 314.419C37.8244 314.194 38.4156 314.421 38.6405 314.925C38.6444 314.934 38.6481 314.942 38.6517 314.951L40.3368 319.039C43.2601 320.403 45.6356 321.085 47.4633 321.085C48.9483 321.085 50.999 320.485 53.6155 319.286C54.6196 318.825 55.8067 319.266 56.267 320.27C56.2869 320.313 56.3052 320.357 56.3219 320.402Z" fill="#E4E4E4"/>
<path fill-rule="evenodd" clip-rule="evenodd" d="M138.137 229.251C168.634 224.282 189.061 220.885 199.419 219.059C228.942 213.853 237.551 197.966 232.461 163.303H178.065C170.866 165.382 140.789 178.238 87.8315 201.872C78.3035 206.602 80.0779 220.548 81.8195 225.143C81.8905 225.33 97.9529 252.854 130.007 307.713L174.505 279.366L138.053 232.591C137.091 230.652 137.119 229.539 138.137 229.251Z" fill="#5C63AB"/>
<path fill-rule="evenodd" clip-rule="evenodd" d="M134.219 150.211L102.321 173.635C93.6696 175.969 86.4416 178.874 80.637 182.348C79.2659 183.597 77.6087 186.128 83.2952 185.69C88.9816 185.253 94.9826 185.049 95.7672 186.988C96.5518 188.928 93.1107 191.247 94.6968 193.864C95.7541 195.609 100.75 191.234 109.683 180.741L141.271 167.642L134.219 150.211ZM256.693 151.019L235.795 151.102C248.698 192.755 255.664 214.856 256.693 217.405C259.007 223.14 254.11 231.873 252.016 236.567C258.836 239.618 258.109 228.316 266.713 232.319C274.565 235.972 280.539 242.592 289.612 236.994C290.727 236.306 291.949 233.714 288.996 231.689C281.638 226.644 271.035 217.814 269.603 214.908C267.649 210.944 263.346 189.648 256.693 151.019Z" fill="#915B3C"/>
<path fill-rule="evenodd" clip-rule="evenodd" d="M197.306 63.3321L188.659 61.8489C156.575 89.5643 143.398 142.809 104.071 171.015L113.537 182.748C181.761 174.301 198.671 109.355 197.306 63.3321Z" fill="#E87613"/>
<path fill-rule="evenodd" clip-rule="evenodd" d="M235 172C200.328 172 174.824 172 158.489 172C154.992 172 155.651 166.952 156.157 164.404C161.989 135.004 184.759 103.312 184.759 61.4607L206.828 58C225.083 87.3584 231.395 123.505 235 172Z" fill="#DDE3E9"/>
<path fill-rule="evenodd" clip-rule="evenodd" d="M234.387 86.8576C237.592 85.9362 240.13 83.7873 242.001 80.4108C250.068 65.8557 247.155 57.842 238.534 55.2079C229.914 52.5737 222.226 57.9996 208.491 57.9996C207.744 57.9996 207.06 58.0464 206.439 58.1401L199.53 58.5343C179.707 125.715 174.241 170.537 183.129 193H243.35C246.918 201.32 250.332 208.32 253.592 214H270.001C271.546 164.067 259.674 121.686 234.387 86.8576Z" fill="#FF9B21"/>
<path fill-rule="evenodd" clip-rule="evenodd" d="M230.234 158.496C228.34 174.342 225.262 185.843 220.999 192.998H243.348C239.186 183.294 234.815 171.793 230.234 158.496Z" fill="black" fill-opacity="0.1"/>
</svg>
