<svg width="242" height="335" viewBox="0 0 242 335" fill="none" xmlns="http://www.w3.org/2000/svg">
<path fill-rule="evenodd" clip-rule="evenodd" d="M95.8764 36.8307C90.5573 33.3346 86.1919 28.5644 84.7202 22.4481C80.48 4.82539 107.064 2.91761 114.785 10.5536C122.505 18.1897 128.985 40.5142 123.104 43.5162C120.759 44.7134 114.854 44.4077 108.333 42.4898L119.21 65.0013L98.7714 69.6104L95.8764 36.8307Z" fill="#B28B67"/>
<path fill-rule="evenodd" clip-rule="evenodd" d="M102.748 20.6686C106.778 30.8408 110.508 35.5325 113.936 34.7437C119.078 33.5604 122.493 29.5189 124.749 28.9997C126.394 28.6212 126.624 30.6209 125.977 32.2918C125.443 33.6703 121.415 35.8076 121.982 37.6239C122.549 39.4402 125.571 37.2386 125.907 38.3158C126.463 40.0977 128.117 43.3079 124.793 44.0727C121.43 44.8467 111.43 45.9252 108.328 41.6604C106.326 38.9079 103.698 32.8545 100.444 23.5001C100.233 23.5245 100.021 23.5607 99.8107 23.6091C96.9288 24.2723 95.2709 26.9837 96.1077 29.6653C96.5325 31.0266 97.5186 32.1186 98.7636 32.7771C98.0511 34.6407 97.2149 36.6086 96.1977 38.6748C89.3578 36.7632 82.0646 28.2382 84.9059 17.7827C85.082 12.9404 87.8989 9.72749 91.7608 7.64792C94.7559 5.53644 98.2483 4.57244 101.484 4.68051C107.486 3.80033 113.234 4.25866 115.024 4.90445C116.634 10.0636 116.038 11.8415 106.819 13.818C104.91 15.4449 103.772 17.7517 102.748 20.6686Z" fill="#191847"/>
<path fill-rule="evenodd" clip-rule="evenodd" d="M107.578 136.777L152.768 239.742L183.077 326.789H195.045L148.71 136.777L107.578 136.777Z" fill="#997659"/>
<path fill-rule="evenodd" clip-rule="evenodd" d="M98.4771 136.777C97.9959 172.96 90.9781 221.673 89.8569 223.929C89.1094 225.432 63.3056 244.554 12.4453 281.292L20.6886 289.233C80.699 257.735 112.093 239.885 114.87 235.683C119.035 229.382 132.597 171.392 143.484 136.777H98.4771Z" fill="#B28B67"/>
<path fill-rule="evenodd" clip-rule="evenodd" d="M11.1652 278.585C8.41948 279.444 6.53027 280.265 5.49758 281.047C4.24158 281.998 2.58749 283.579 0.535328 285.788C1.77994 287.127 12.9655 299.159 34.0919 321.885C38.3388 320.267 39.6575 318.346 38.0478 316.121C36.4381 313.896 35.1204 312.033 34.0945 310.532L26.6377 287.59C26.4942 287.148 25.9846 286.889 25.4995 287.011C25.4912 287.013 25.4829 287.016 25.4747 287.018L21.6251 288.096C18.9358 286.944 17.0475 285.784 15.9601 284.614C15.0766 283.664 14.2743 282.035 13.553 279.728C13.2762 278.842 12.2629 278.315 11.2896 278.55C11.2477 278.56 11.2062 278.572 11.1652 278.585Z" fill="#E4E4E4"/>
<path fill-rule="evenodd" clip-rule="evenodd" d="M178.178 322.853C177.148 325.338 176.633 327.197 176.633 328.431C176.633 329.932 176.909 332.121 177.463 335C179.389 335 196.699 335 229.392 335C230.742 330.968 229.963 328.791 227.055 328.47C224.148 328.148 221.733 327.858 219.809 327.599L195.673 317.875C195.209 317.688 194.664 317.876 194.457 318.296C194.454 318.303 194.45 318.311 194.447 318.318L192.895 321.719C190.204 322.854 188.017 323.421 186.334 323.421C184.967 323.421 183.079 322.922 180.67 321.924C179.745 321.541 178.652 321.908 178.228 322.744C178.21 322.78 178.193 322.816 178.178 322.853Z" fill="#E4E4E4"/>
<path fill-rule="evenodd" clip-rule="evenodd" d="M137.962 317.824L194.866 312.264L152.693 136.777H101.727L137.962 317.824Z" fill="#69A1AC"/>
<path fill-rule="evenodd" clip-rule="evenodd" d="M24.2168 268.481L61.5424 308.253C100.857 269.599 123.777 244.377 130.303 232.588C136.83 220.799 142.697 188.862 147.904 136.777H90.5246C87.6801 182.599 85.7627 206.576 84.7724 208.708C83.7821 210.84 63.5969 230.765 24.2168 268.481Z" fill="#89C5CC"/>
<path fill-rule="evenodd" clip-rule="evenodd" d="M177.073 117.181L209.872 132.516C218.069 133.306 225.083 134.766 230.914 136.896C232.366 137.759 234.299 139.657 229.102 140.057C223.906 140.457 218.467 141.095 218.098 142.827C217.729 144.559 221.231 146.039 220.259 148.447C219.61 150.052 214.351 147.058 204.48 139.465L173.758 132.744L177.073 117.181ZM66.935 134.372L85.766 131.624C81.3972 168.282 78.9715 187.749 78.4891 190.025C77.4036 195.144 83.3327 201.805 86.035 205.457C80.4252 208.935 79.1125 199.363 72.0624 203.878C65.6274 208 61.4007 214.355 52.2571 210.885C51.1329 210.458 49.5813 208.451 51.8881 206.355C57.6352 201.133 65.6457 192.301 66.4298 189.672C67.4991 186.086 67.6675 167.653 66.935 134.372Z" fill="#B28B67"/>
<path fill-rule="evenodd" clip-rule="evenodd" d="M107.066 54.7413L114.503 52.3629C147.811 71.0281 168.689 113.336 208.524 131.443L202.121 142.413C139.976 144.503 113.765 93.0087 107.066 54.7413Z" fill="#E87613"/>
<path fill-rule="evenodd" clip-rule="evenodd" d="M91.5864 150.038C122.393 145.445 145.054 142.066 159.569 139.901C162.675 139.438 161.223 135.367 160.336 133.335C150.104 109.891 124.43 86.802 117.243 52.3289L97.0392 52.4023C85.8618 79.0037 86.4607 109.614 91.5864 150.038Z" fill="#DDE3E9"/>
<path fill-rule="evenodd" clip-rule="evenodd" d="M76.7906 80.0757C73.7943 79.742 71.1787 78.3106 68.9436 75.7814C59.3087 64.8789 60.5168 57.9035 67.7 54.5971C74.8832 51.2906 82.62 54.7358 94.7831 52.9191C95.4447 52.8202 96.0586 52.7683 96.6249 52.7631L102.811 52.1734C131.864 104.798 144.378 140.934 140.352 160.582L87.0217 168.548C85.2861 175.861 83.4607 182.07 81.5455 187.172L67.0141 189.342C57.0994 148.484 60.3582 112.062 76.7906 80.0757Z" fill="#FF9B21"/>
<path fill-rule="evenodd" clip-rule="evenodd" d="M92.0639 138.229C96.4631 151.022 101.168 160.082 106.178 165.408L86.3444 168.367C88.3734 159.827 90.2799 149.781 92.0639 138.229Z" fill="black" fill-opacity="0.1"/>
</svg>
