<svg width="40" height="40" viewBox="0 0 40 40" fill="none" xmlns="http://www.w3.org/2000/svg">
<path d="M12.2354 16.1854L12.2342 16.1867C11.7654 16.6561 11.5021 17.2925 11.5021 17.9559C11.5021 18.6194 11.7654 19.2558 12.2342 19.7252L12.2363 19.7273C12.7081 20.1943 13.3451 20.4563 14.009 20.4563C14.6729 20.4563 15.3099 20.1943 15.7817 19.7273L15.7826 19.7265L17.488 18.0304V27.9999C17.488 29.383 18.6168 30.4999 20 30.4999C21.3839 30.4999 22.51 29.3824 22.51 27.9999V18.0304L24.2154 19.7265L24.2163 19.7273C24.6881 20.1943 25.3251 20.4563 25.989 20.4563C26.6529 20.4563 27.2899 20.1943 27.7617 19.7273L27.7624 19.7267C27.9959 19.4947 28.1812 19.2188 28.3077 18.9149C28.4341 18.611 28.4992 18.2851 28.4992 17.9559C28.4992 17.6268 28.4341 17.3009 28.3077 16.997C28.1812 16.6931 27.9959 16.4172 27.7624 16.1852L21.7745 10.2314L21.7742 10.2311C21.3022 9.76255 20.6641 9.49963 19.999 9.49963C19.3339 9.49963 18.6958 9.76255 18.2238 10.2311L18.2234 10.2314L12.2354 16.1854ZM39.5 20C39.5 30.7696 30.7696 39.5 20 39.5C9.23045 39.5 0.5 30.7696 0.5 20C0.5 9.23045 9.23045 0.5 20 0.5C30.7696 0.5 39.5 9.23045 39.5 20Z" fill="#FBCA5C" stroke="#FFFFF3"/>
</svg>
