<svg width="32" height="32" viewBox="0 0 32 32" fill="none" xmlns="http://www.w3.org/2000/svg">
<g id="&#226;&#157;&#150; arrow up">
<path id="Vector" d="M10.7064 13.3381L10.7052 13.3394C10.3614 13.6836 10.1684 14.1502 10.1684 14.6366C10.1684 15.1231 10.3614 15.5897 10.7052 15.9339L10.7073 15.936C11.053 16.2782 11.5198 16.4702 12.0063 16.4702C12.4928 16.4702 12.9596 16.2782 13.3054 15.936L13.3062 15.9352L14.159 15.0871V21.3326C14.159 22.3477 14.9871 23.166 16.0003 23.166C17.0142 23.166 17.8403 22.3471 17.8403 21.3326V15.0871L18.6931 15.9352L18.6939 15.936C19.0397 16.2782 19.5065 16.4702 19.993 16.4702C20.4795 16.4702 20.9463 16.2782 21.2921 15.936L21.2927 15.9354C21.464 15.7652 21.5999 15.5629 21.6927 15.34C21.7854 15.1171 21.8332 14.8781 21.8332 14.6366C21.8332 14.3952 21.7854 14.1562 21.6927 13.9333L21.231 14.1254L21.6926 13.9333C21.5999 13.7104 21.464 13.5081 21.2927 13.3379L17.3009 9.36875L17.3005 9.36844C16.9546 9.02511 16.487 8.83244 15.9997 8.83244C15.5123 8.83244 15.0447 9.02511 14.6988 9.36844L14.6984 9.36875L10.7064 13.3381ZM28.8337 15.9993C28.8337 23.087 23.088 28.8327 16.0003 28.8327C8.91267 28.8327 3.16699 23.087 3.16699 15.9993C3.16699 8.9117 8.91267 3.16602 16.0003 3.16602C23.088 3.16602 28.8337 8.91169 28.8337 15.9993Z" fill="#FBCA5C" stroke="#FFFFF3"/>
</g>
</svg>
